<?xml version="1.0" standalone="no"?>
<!DOCTYPE svg PUBLIC "-//W3C//DTD SVG 20010904//EN"
 "http://www.w3.org/TR/2001/REC-SVG-20010904/DTD/svg10.dtd">
<svg version="1.0" xmlns="http://www.w3.org/2000/svg"
 width="736.000000pt" height="1306.000000pt" viewBox="0 0 736.000000 1306.000000"
 preserveAspectRatio="xMidYMid meet">

<g transform="translate(0.000000,1306.000000) scale(0.100000,-0.100000)"
fill="#000000" stroke="none">
<path d="M2 12619 l3 -442 210 -87 c116 -48 211 -84 212 -81 2 3 -15 101 -36
216 -22 116 -36 213 -32 217 3 4 127 -1 275 -12 147 -11 272 -17 277 -14 5 3
27 31 49 62 21 31 73 103 114 159 42 56 71 105 66 108 -17 10 -11 61 8 78 10
10 28 17 40 17 25 0 62 -33 62 -54 0 -23 -40 -66 -63 -66 -17 -1 -48 -38 -132
-156 -60 -85 -117 -161 -125 -168 -12 -11 -58 -10 -265 5 -137 10 -257 18
-266 19 -13 0 -10 -30 24 -220 22 -122 37 -224 33 -227 -4 -4 -86 26 -184 66
-97 40 -198 81 -224 92 l-48 19 0 -335 c0 -190 4 -335 9 -335 17 0 22 -34 6
-42 -23 -13 -19 -37 5 -31 27 7 38 -24 15 -41 -19 -14 -12 -41 9 -33 6 2 22 7
36 11 18 5 21 5 10 -3 -29 -20 -1 -22 37 -2 21 11 32 20 26 21 -7 0 -13 5 -13
10 0 6 3 9 7 8 5 -1 27 8 50 20 23 12 46 22 50 22 4 -1 -14 -12 -41 -26 -37
-20 -46 -28 -35 -35 8 -5 10 -9 4 -9 -16 0 -117 -61 -112 -67 3 -2 54 17 114
43 151 66 233 95 244 89 5 -4 9 -2 9 3 0 11 151 49 255 63 98 13 238 -1 206
-21 -7 -4 -2 -12 14 -20 14 -7 25 -17 25 -21 0 -4 -17 2 -37 13 -34 17 -52 19
-158 14 -74 -3 -151 -13 -200 -25 -92 -25 -278 -92 -348 -128 -41 -20 -51 -22
-64 -11 -14 11 -15 10 -9 -9 5 -14 2 -24 -8 -30 -13 -7 -1 -34 71 -158 47 -83
88 -152 89 -154 2 -2 37 9 79 24 41 15 82 24 91 21 8 -3 13 -2 10 2 -7 12 63
44 76 36 7 -4 8 -2 4 4 -4 7 -3 12 3 12 5 0 12 -4 16 -10 3 -6 15 -5 30 2 14
6 23 13 21 15 -2 3 -14 0 -25 -7 -12 -6 -21 -7 -21 -3 0 4 32 26 72 48 40 22
92 55 115 73 24 18 49 30 55 26 7 -4 8 -3 4 4 -7 11 47 57 67 57 7 0 12 7 12
16 0 20 30 50 40 41 5 -4 5 -1 1 5 -4 7 -2 21 3 31 19 36 20 96 3 117 -17 19
-16 19 7 4 74 -47 32 -170 -90 -268 -35 -28 -42 -31 -57 -19 -15 11 -16 11 -4
-3 11 -15 3 -23 -65 -67 -105 -66 -201 -114 -215 -106 -7 5 -8 2 -3 -6 6 -10
3 -12 -13 -8 -12 4 -20 1 -19 -5 2 -9 -99 -58 -148 -71 -10 -3 -16 -8 -12 -12
3 -4 41 7 84 24 97 37 125 47 137 43 5 -1 12 2 15 6 3 5 23 19 45 31 32 19 41
20 54 10 13 -11 15 -10 10 3 -5 12 7 24 44 44 27 15 79 47 115 71 36 24 69 41
74 38 5 -3 8 -1 7 4 -2 5 28 35 65 68 82 71 147 163 147 208 0 41 -43 84 -96
97 -145 33 -393 -10 -686 -120 -71 -26 -128 -46 -128 -45 0 5 75 38 133 59 61
23 56 29 -8 10 -88 -27 -57 -8 52 31 69 24 123 38 150 37 24 -1 45 2 48 7 3 4
-5 6 -17 4 -13 -2 -3 3 22 11 80 27 212 45 325 45 72 0 105 -4 95 -10 -13 -8
-13 -9 0 -14 37 -11 60 -13 54 -5 -3 5 -13 9 -22 10 -9 0 -12 3 -5 5 23 10 90
-34 107 -70 21 -46 20 -61 -9 -125 -31 -66 -138 -174 -245 -247 -94 -64 -352
-201 -459 -244 -46 -19 -81 -38 -81 -46 0 -8 5 -14 10 -14 25 0 319 126 412
177 252 136 490 331 542 443 60 129 17 187 -166 221 -76 14 -146 11 -287 -12
-151 -24 -238 -46 -395 -99 -66 -22 -121 -38 -124 -36 -2 3 14 10 36 17 30 9
39 16 35 28 -5 13 -3 14 8 4 7 -7 18 -13 23 -13 6 0 4 4 -4 10 -19 12 -18 13
80 43 256 78 525 118 655 97 138 -22 205 -79 205 -174 0 -39 -8 -64 -31 -106
-46 -80 -206 -234 -332 -319 -126 -85 -368 -214 -517 -276 -93 -39 -134 -65
-100 -65 18 0 271 106 365 153 170 84 387 218 491 303 30 24 54 42 54 40 0
-10 126 131 163 180 49 68 67 113 67 170 0 40 -5 51 -38 84 -55 56 -126 74
-282 75 -147 0 -300 -8 -300 -16 0 -3 -35 -11 -77 -18 -65 -11 -158 -34 -268
-68 -16 -5 -18 -3 -10 9 6 7 3 7 -5 -2 -9 -9 -42 -25 -75 -35 -33 -10 -73 -25
-88 -32 -36 -18 -68 -10 -46 11 8 8 25 17 39 20 17 4 14 1 -9 -10 -18 -8 -31
-18 -27 -21 5 -6 38 5 106 36 23 10 22 10 -10 5 -107 -19 112 54 288 96 70 16
141 34 157 39 124 39 448 40 548 2 154 -60 187 -188 87 -338 -45 -67 -58 -82
-85 -103 -18 -14 -19 -14 -7 2 8 9 9 19 4 22 -10 6 -30 -12 -31 -29 -1 -5 -4
-10 -8 -10 -16 0 -33 -17 -27 -26 4 -6 12 -5 22 2 10 7 4 0 -11 -17 -22 -23
-29 -26 -36 -15 -7 11 -11 10 -20 -6 -5 -11 -8 -23 -5 -25 10 -10 -91 -88
-106 -82 -8 3 -11 2 -7 -2 8 -8 -11 -34 -25 -34 -5 0 -6 5 -2 12 4 7 3 8 -5 4
-6 -4 -9 -11 -6 -16 15 -24 -427 -270 -638 -356 -61 -26 -113 -48 -115 -49 -2
-2 4 -15 13 -29 10 -15 43 -35 86 -52 38 -15 67 -29 65 -31 -2 -2 -31 7 -65
21 -33 13 -61 23 -61 20 0 -2 11 -21 24 -42 13 -20 99 -167 192 -327 92 -159
174 -298 183 -308 8 -10 16 -23 17 -30 2 -10 1139 -1965 1149 -1975 2 -2 374
157 827 354 453 196 833 359 845 362 28 5 42 -23 22 -42 -8 -7 -174 -82 -369
-166 -828 -357 -1276 -552 -1284 -560 -6 -6 446 -801 476 -835 5 -6 39 24 86
75 432 472 927 1006 936 1009 6 2 -12 -21 -40 -50 -189 -200 -964 -1050 -964
-1058 0 -5 305 -533 678 -1173 373 -640 738 -1266 812 -1393 73 -126 134 -232
136 -234 2 -2 17 13 35 33 17 20 41 42 52 47 11 6 -1 -9 -27 -33 -49 -47 -54
-63 -32 -93 13 -18 14 -18 25 4 13 23 96 81 115 81 6 0 -9 -12 -34 -26 -25
-14 -56 -39 -69 -55 l-23 -30 34 -57 c19 -31 48 -81 64 -109 20 -37 39 -57 64
-68 31 -14 31 -15 7 -10 l-29 6 23 -41 c20 -36 27 -40 63 -42 l41 -1 -38 -4
c-44 -5 -40 -22 6 -24 32 -1 32 -1 5 -8 l-28 -6 191 -327 191 -327 34 26 c74
56 177 38 227 -40 58 -89 13 -208 -88 -235 -23 -7 -3 -43 511 -925 352 -604
534 -924 530 -934 -6 -14 -9 -15 -20 -2 -8 8 -206 345 -442 749 -235 404 -476
817 -534 918 -98 167 -110 184 -151 205 -63 31 -89 76 -89 149 0 58 -2 61
-202 404 -127 218 -209 349 -222 354 -12 5 -15 9 -8 9 20 1 13 18 -10 24 -13
4 -32 13 -43 22 -17 14 -16 14 14 -1 32 -15 34 -15 27 2 -4 11 -37 70 -73 132
-46 79 -69 109 -75 100 -7 -10 -8 -10 -7 2 3 26 -1 44 -11 60 -9 13 -11 13
-21 0 -8 -12 -9 -11 -4 7 4 16 -106 214 -471 840 -263 450 -492 843 -509 873
-17 30 -70 120 -117 200 -46 80 -183 314 -303 520 -119 206 -223 381 -230 388
-9 11 -23 1 -68 -48 -32 -34 -57 -57 -57 -52 0 5 12 19 26 33 14 13 39 41 55
61 l30 37 -248 426 c-136 234 -252 425 -256 425 -5 0 -73 -28 -153 -62 -107
-47 -144 -67 -144 -80 0 -19 -19 -24 -36 -10 -5 5 -127 -42 -284 -111 -151
-65 -522 -226 -825 -357 l-550 -239 -3 -1458 c-2 -1415 -2 -1459 16 -1459 14
0 18 6 15 21 -2 12 3 8 11 -10 8 -16 12 -33 9 -38 -7 -11 27 -95 42 -100 6 -3
22 -30 35 -61 12 -31 26 -56 31 -56 5 0 0 22 -11 50 -13 32 -16 51 -9 56 6 3
12 4 13 3 3 -4 68 -172 110 -286 15 -39 33 -73 40 -76 13 -5 52 -95 44 -102
-2 -3 -21 1 -42 7 -32 10 -42 20 -57 56 -11 25 -22 42 -25 39 -3 -2 2 -22 10
-42 21 -50 21 -52 -14 -47 -40 6 -38 -11 2 -32 18 -8 26 -16 18 -16 -11 0 -11
-3 -2 -12 10 -10 15 -10 23 2 9 12 10 10 6 -8 -4 -15 1 -25 14 -32 11 -7 19
-7 19 -1 0 5 -6 12 -13 14 -7 3 -4 6 6 6 13 1 17 -5 15 -17 -2 -9 -10 -16 -16
-14 -16 3 -15 -2 8 -48 20 -39 35 -55 24 -25 -4 8 -1 15 5 15 6 0 23 -26 36
-57 33 -74 40 -103 26 -103 -11 0 -19 16 -46 85 -5 13 -9 15 -12 8 -9 -26 -30
-12 -42 27 -11 39 -31 63 -31 38 0 -7 18 -58 39 -113 24 -61 36 -104 30 -109
-15 -16 -25 2 -79 144 -27 74 -55 139 -60 144 -18 18 -11 -8 30 -110 45 -113
46 -114 24 -114 -13 0 -15 -6 -9 -32 4 -18 8 -40 9 -48 1 -9 6 -21 10 -28 4
-7 5 -16 2 -19 -3 -3 -8 2 -12 11 -3 9 -14 16 -24 16 -11 0 -22 6 -26 12 -4 7
-4 10 1 6 4 -4 14 0 21 10 19 24 17 37 -2 17 -13 -13 -19 -14 -25 -4 -4 7 -6
17 -5 23 2 6 1 8 -1 4 -3 -5 -12 -8 -20 -8 -13 0 -13 -3 -3 -15 8 -9 8 -15 2
-15 -6 0 -16 17 -23 38 -6 20 -21 46 -32 58 -26 27 -59 112 -50 127 4 7 -1 6
-10 -2 -9 -7 -17 -20 -17 -27 0 -8 -4 -14 -10 -14 -6 0 -6 9 -1 23 7 17 6 24
-3 24 -22 0 -16 -55 15 -127 16 -39 31 -82 33 -97 3 -16 7 -39 10 -53 6 -22 5
-22 -5 3 -6 15 -17 27 -25 27 -17 0 -34 39 -26 59 3 9 1 12 -6 7 -9 -5 -12
-391 -12 -1587 l0 -1579 811 0 c767 0 810 1 805 18 -3 9 -31 130 -61 267 -82
368 -82 368 -136 489 -84 186 -133 291 -139 296 -3 3 -15 28 -27 55 -12 28
-77 170 -146 316 -68 146 -127 275 -131 286 -7 23 -6 25 488 588 159 182 382
436 495 565 113 129 226 256 251 281 l45 46 428 12 c323 9 432 9 443 1 10 -9
132 -184 225 -322 3 -5 210 62 460 147 249 86 463 154 474 153 24 -4 18 34
105 -683 49 -407 64 -503 78 -516 9 -9 218 -159 464 -333 l448 -316 35 14 c19
8 35 11 35 7 0 -5 -11 -12 -25 -15 -14 -4 -25 -10 -25 -14 0 -4 90 -70 200
-147 127 -90 199 -146 200 -157 0 -10 -4 -18 -8 -18 -5 0 -49 28 -98 63 -271
192 -607 430 -897 636 -181 128 -331 231 -334 228 -2 -3 10 -122 27 -264 18
-142 30 -278 27 -303 -10 -81 -168 -915 -175 -921 -4 -4 -93 -46 -199 -94
-158 -72 -191 -90 -190 -107 1 -18 2 -18 16 -1 13 17 13 17 7 0 -3 -10 -6 -21
-6 -23 0 -2 -6 -4 -13 -4 -15 0 -48 -85 -41 -104 3 -8 -2 -28 -10 -45 -28 -53
-36 -81 -25 -81 6 0 18 18 27 40 9 22 23 40 30 40 15 0 15 -9 -3 -40 -21 -36
-19 -40 18 -40 31 0 35 4 57 58 27 67 50 98 50 67 0 -11 -9 -40 -20 -64 -25
-53 -25 -61 -2 -61 13 0 24 14 35 42 9 23 19 39 23 36 3 -4 -2 -20 -10 -37 -9
-16 -16 -32 -16 -36 0 -3 92 -5 204 -5 l205 0 251 151 c220 132 253 149 268
137 9 -7 71 -61 137 -119 l120 -106 150 88 150 88 56 123 c41 88 54 128 48
140 -23 43 1 90 46 91 29 0 65 -32 65 -58 0 -22 -34 -56 -57 -58 -18 -1 -32
-23 -77 -127 l-54 -125 -119 -70 c-65 -39 -139 -83 -165 -98 l-47 -27 -135
120 -135 120 -202 -121 c-112 -66 -212 -127 -223 -135 -18 -12 49 -14 501 -14
l521 0 232 325 c128 179 236 325 240 325 30 0 -2 -54 -199 -330 -122 -170
-221 -311 -221 -314 0 -4 101 -6 225 -6 124 0 225 3 225 6 0 4 16 108 35 233
34 215 53 299 54 243 1 -12 -15 -119 -34 -238 -19 -118 -35 -222 -35 -230 0
-11 25 -14 141 -14 l141 0 -5 23 c-49 205 -88 401 -83 414 14 35 30 -10 72
-204 25 -109 47 -206 50 -215 5 -17 36 -18 475 -18 l469 0 0 173 0 173 -401
119 c-221 66 -403 126 -406 133 -3 7 -3 16 1 19 5 6 168 -41 693 -201 l113
-34 0 1648 0 1649 -78 -44 c-76 -43 -78 -44 -142 -154 l-65 -111 -129 0 -128
0 -115 -65 -115 -65 -38 23 c-22 12 -71 41 -111 65 l-72 42 -126 0 -126 0 -65
112 -65 112 -110 65 -110 66 -5 135 -5 135 -57 98 c-32 54 -58 101 -58 104 0
3 29 57 65 119 l65 113 0 128 0 128 108 60 c68 39 113 71 125 90 11 17 40 66
65 110 l47 80 132 3 133 3 105 59 c58 33 110 60 116 60 6 0 54 -26 107 -57
l97 -58 135 -5 135 -5 64 -111 c64 -107 67 -111 143 -156 l78 -47 0 1588 0
1588 -85 33 c-47 18 -84 35 -81 37 2 2 38 -10 80 -27 42 -16 79 -30 81 -30 3
0 5 504 5 1120 0 616 -2 1120 -4 1120 -9 0 -301 -113 -309 -119 -4 -4 4 -36
18 -71 l25 -64 -27 -30 c-16 -17 -30 -33 -33 -36 -11 -10 -156 -187 -181 -220
l-25 -33 -180 32 c-98 18 -191 35 -206 37 -23 5 -30 14 -45 61 -10 30 -22 57
-28 59 -6 3 -230 -79 -499 -181 -530 -201 -541 -205 -534 -184 2 7 227 98 499
201 272 103 501 191 510 195 15 7 12 22 -26 127 l-43 119 129 153 c71 84 133
155 137 158 4 2 98 -12 209 -32 l202 -36 37 -105 c20 -58 40 -110 44 -114 4
-4 79 20 168 54 l162 62 0 871 0 871 -859 -859 c-648 -648 -863 -857 -876
-852 -9 3 -19 6 -21 6 -2 0 -4 10 -4 23 0 16 234 256 880 902 l880 880 0 522
0 523 -652 0 -653 0 -102 -258 -102 -257 27 -20 c60 -44 138 -133 164 -186
137 -284 -33 -612 -343 -660 -52 -8 -92 -9 -131 -2 l-58 10 -79 -201 c-44
-111 -123 -310 -175 -443 l-97 -241 23 -46 c12 -25 28 -46 34 -46 7 0 43 7 80
16 l66 15 41 -28 c22 -15 47 -28 56 -28 22 0 20 -29 -1 -33 -10 -2 -18 2 -18
10 0 7 -18 25 -39 41 l-39 27 -82 -19 -82 -19 -19 45 c-10 24 -23 41 -29 38
-5 -3 -10 -10 -10 -15 0 -14 -371 -944 -381 -954 -6 -6 -13 -6 -19 0 -7 7 48
157 170 465 99 250 187 471 196 493 l15 39 -35 -6 c-38 -6 -56 7 -37 26 8 8
14 8 23 -1 7 -7 21 -12 33 -12 17 0 44 60 193 438 95 240 172 440 172 444 0 4
-22 19 -50 33 -53 27 -124 84 -115 93 3 3 22 -8 43 -25 38 -31 114 -73 131
-73 9 0 37 69 29 73 -1 1 -21 11 -43 22 -51 26 -128 101 -153 151 -30 59 -52
174 -33 174 4 0 11 -22 14 -49 9 -76 50 -153 112 -209 30 -27 68 -55 85 -60
35 -13 28 -21 74 95 l24 62 -34 20 c-19 11 -34 25 -34 31 0 7 16 2 36 -10 19
-12 37 -21 39 -19 7 8 135 334 135 345 0 16 -34 24 -101 24 -113 0 -218 -87
-235 -195 -3 -25 -10 -45 -15 -45 -29 0 15 124 62 175 56 60 125 89 203 82 34
-3 70 -8 81 -12 17 -5 24 4 50 71 17 43 31 81 33 85 2 5 -22 16 -54 25 -91 26
-221 17 -304 -22 -36 -17 -82 -45 -102 -63 -20 -17 -39 -27 -42 -22 -9 14 63
67 139 103 86 39 218 50 307 24 31 -9 58 -16 61 -16 6 0 197 475 197 490 0 7
-321 10 -940 10 l-940 0 5 -37 c3 -21 39 -398 81 -838 41 -440 117 -1249 169
-1797 86 -904 101 -1075 89 -1028 -3 13 -164 1699 -299 3130 -25 261 -47 496
-51 523 l-6 47 -378 0 c-242 0 -381 -4 -385 -10 -3 -5 -17 -10 -31 -10 -13 0
-24 5 -24 10 0 7 -557 10 -1650 10 l-1650 0 2 -441z m3276 304 c4 -25 -20 -75
-49 -104 -15 -15 -24 -17 -39 -9 -28 15 -25 35 11 92 24 37 37 48 53 46 13 -2
22 -12 24 -25z m3152 -173 c0 -5 -4 -10 -10 -10 -5 0 -10 5 -10 10 0 6 5 10
10 10 6 0 10 -4 10 -10z m-3312 -22 c20 -20 13 -41 -29 -85 -42 -45 -57 -51
-77 -31 -19 19 -14 33 31 82 46 49 56 53 75 34z m1122 -8 c0 -5 -2 -10 -4 -10
-3 0 -8 5 -11 10 -3 6 -1 10 4 10 6 0 11 -4 11 -10z m1480 -30 c0 -5 -2 -10
-4 -10 -3 0 -8 5 -11 10 -3 6 -1 10 4 10 6 0 11 -4 11 -10z m120 -24 c0 -3 -4
-8 -10 -11 -5 -3 -10 -1 -10 4 0 6 5 11 10 11 6 0 10 -2 10 -4z m-570 -106 c0
-5 -5 -10 -11 -10 -5 0 -7 5 -4 10 3 6 8 10 11 10 2 0 4 -4 4 -10z m-2335 -39
c0 -34 -89 -100 -114 -84 -28 18 -19 50 24 82 49 38 90 38 90 2z m3105 9 c0
-5 -4 -10 -10 -10 -5 0 -10 5 -10 10 0 6 5 10 10 10 6 0 10 -4 10 -10z m-360
-50 c0 -5 -4 -10 -10 -10 -5 0 -10 5 -10 10 0 6 5 10 10 10 6 0 10 -4 10 -10z
m-490 -10 c0 -5 -4 -10 -10 -10 -5 0 -10 5 -10 10 0 6 5 10 10 10 6 0 10 -4
10 -10z m1789 -43 c0 -21 -1 -21 -9 -2 -12 28 -12 37 0 30 6 -3 10 -16 9 -28z
m96 -27 c-10 -11 -20 -18 -23 -15 -3 3 3 14 13 25 10 11 20 18 23 15 3 -3 -3
-14 -13 -25z m-4360 -10 c9 -27 1 -37 -56 -65 -39 -20 -54 -23 -69 -15 -35 19
-24 47 28 74 58 31 89 33 97 6z m4175 -10 c8 -5 11 -10 5 -10 -5 0 -17 5 -25
10 -8 5 -10 10 -5 10 6 0 17 -5 25 -10z m-1765 -10 c3 -5 1 -10 -4 -10 -6 0
-11 5 -11 10 0 6 2 10 4 10 3 0 8 -4 11 -10z m1045 -40 c0 -5 -4 -10 -10 -10
-5 0 -10 5 -10 10 0 6 5 10 10 10 6 0 10 -4 10 -10z m-4537 -16 c58 -20 76
-46 46 -67 -18 -13 -27 -13 -72 2 -59 20 -77 41 -58 65 17 20 26 20 84 0z
m1856 -20 c25 -32 26 -54 5 -80 -15 -19 -16 -19 -8 1 19 52 -1 95 -45 95 -31
0 -44 -8 -59 -35 -7 -13 -12 -15 -12 -6 -1 52 84 69 119 25z m203 9 c28 -25
24 -77 -8 -102 -15 -12 -37 -21 -49 -21 -14 0 -26 -9 -34 -26 -6 -15 -14 -24
-18 -21 -3 4 1 17 9 30 14 21 14 25 -3 46 -25 30 -24 62 1 89 25 26 76 29 102
5z m-1223 -7 c20 -24 0 -46 -56 -62 -58 -17 -80 -14 -90 12 -8 20 13 40 57 52
50 15 76 14 89 -2z m3171 -16 c0 -5 -5 -10 -11 -10 -5 0 -7 5 -4 10 3 6 8 10
11 10 2 0 4 -4 4 -10z m-3734 -20 c33 0 57 -27 44 -51 -18 -32 -142 -21 -148
14 -6 30 18 49 51 43 16 -3 40 -6 53 -6z m305 -16 c23 -27 -2 -48 -66 -56 -63
-8 -85 1 -85 34 0 23 32 37 91 37 31 1 51 -4 60 -15z m3099 6 c0 -5 -4 -10
-10 -10 -5 0 -10 5 -10 10 0 6 5 10 10 10 6 0 10 -4 10 -10z m1758 -46 c-4 -3
-12 5 -18 18 -12 22 -12 22 6 6 10 -10 15 -20 12 -24z m-116 -16 c-8 -8 -9 -4
-5 13 4 13 8 18 11 10 2 -7 -1 -18 -6 -23z m-3449 -93 c-8 -6 -18 -27 -23 -45
-7 -29 -8 -31 -9 -10 -1 14 6 35 14 48 13 17 13 27 5 44 -11 21 -10 21 8 -2
18 -21 18 -26 5 -35z m1577 41 c0 -3 -4 -8 -10 -11 -5 -3 -10 -1 -10 4 0 6 5
11 10 11 6 0 10 -2 10 -4z m-1480 -58 c0 -5 -8 0 -18 10 -11 9 -17 21 -14 25
4 8 31 -22 32 -35z m10 -38 c0 -23 -33 -60 -52 -59 -7 0 -3 5 10 11 13 7 26
24 29 40 6 33 13 37 13 8z m-96 -59 c-2 -3 -12 3 -22 13 -16 17 -16 18 5 5 12
-7 20 -15 17 -18z m1056 -1 c0 -5 -5 -10 -11 -10 -5 0 -7 5 -4 10 3 6 8 10 11
10 2 0 4 -4 4 -10z m295 -160 c3 -5 1 -10 -4 -10 -6 0 -11 5 -11 10 0 6 2 10
4 10 3 0 8 -4 11 -10z m-2175 -50 c47 -24 93 -79 108 -128 10 -33 10 -35 -3
-18 -8 11 -15 16 -15 12 0 -5 -6 -3 -13 3 -8 6 -17 8 -20 4 -4 -3 -7 -2 -7 3
0 5 -12 10 -27 10 -67 4 -89 9 -102 28 -8 10 -28 34 -44 53 -29 33 -30 33 -44
13 -8 -11 -25 -20 -39 -20 -16 0 -23 -4 -18 -11 5 -8 1 -8 -13 0 -11 6 -23 7
-27 4 -3 -3 -6 -2 -6 3 1 13 44 43 88 59 47 18 130 11 182 -15z m3290 -90 c0
-5 -2 -10 -4 -10 -3 0 -8 5 -11 10 -3 6 -1 10 4 10 6 0 11 -4 11 -10z m-3558
-76 c59 -62 183 -147 272 -186 l59 -26 -39 -25 c-58 -38 -116 -50 -175 -38
-147 32 -225 165 -183 314 3 9 7 17 9 17 2 0 28 -25 57 -56z m1268 40 c0 -8
-4 -12 -10 -9 -5 3 -10 10 -10 16 0 5 5 9 10 9 6 0 10 -7 10 -16z m1440 -9 c0
-8 -4 -15 -10 -15 -5 0 -10 7 -10 15 0 8 5 15 10 15 6 0 10 -7 10 -15z m-1750
-55 c0 -5 -7 -10 -15 -10 -8 0 -15 5 -15 10 0 6 7 10 15 10 8 0 15 -4 15 -10z
m990 0 c0 -5 -2 -10 -4 -10 -3 0 -8 5 -11 10 -3 6 -1 10 4 10 6 0 11 -4 11
-10z m1390 0 c0 -5 -2 -10 -4 -10 -3 0 -8 5 -11 10 -3 6 -1 10 4 10 6 0 11 -4
11 -10z m-5475 -20 c-22 -10 -44 -18 -50 -18 -5 0 8 8 30 19 22 10 45 18 50
18 6 0 -8 -9 -30 -19z m5355 10 c0 -5 -5 -10 -11 -10 -5 0 -7 5 -4 10 3 6 8
10 11 10 2 0 4 -4 4 -10z m-5420 -10 c-8 -5 -19 -10 -25 -10 -5 0 -3 5 5 10 8
5 20 10 25 10 6 0 3 -5 -5 -10z m150 -20 c-8 -5 -22 -9 -30 -9 -10 0 -8 3 5 9
27 12 43 12 25 0z m-130 -75 c-14 -8 -29 -14 -35 -14 -5 0 1 6 15 14 14 8 30
14 35 14 6 0 -1 -6 -15 -14z m-50 -19 c0 -2 -7 -7 -16 -10 -8 -3 -12 -2 -9 4
6 10 25 14 25 6z m6020 -26 c0 -5 -4 -10 -10 -10 -5 0 -10 5 -10 10 0 6 5 10
10 10 6 0 10 -4 10 -10z m938 -82 c1 -49 4 -54 62 -113 47 -47 58 -64 48 -71
-7 -6 -63 -34 -125 -64 -105 -50 -112 -55 -127 -95 -9 -23 -14 -49 -10 -58 4
-11 0 -19 -10 -23 -26 -10 -32 4 -14 34 8 15 21 43 27 63 10 32 21 39 133 92
l121 57 -56 59 c-36 38 -57 68 -57 83 0 13 -7 34 -16 46 -16 23 -12 42 10 42
8 0 13 -17 14 -52z m-2768 2 c0 -5 -2 -10 -4 -10 -3 0 -8 5 -11 10 -3 6 -1 10
4 10 6 0 11 -4 11 -10z m-910 -247 c0 -8 -13 5 -110 105 l-105 107 108 -105
c59 -57 107 -106 107 -107z m-55 147 c32 -33 57 -62 54 -64 -3 -3 -34 24 -69
59 -36 36 -60 65 -54 65 5 0 36 -27 69 -60z m45 45 c20 -24 6 -28 -15 -5 -10
11 -13 20 -8 20 6 0 16 -7 23 -15z m-130 -140 c35 -36 62 -65 59 -65 -2 0 -34
29 -69 65 -35 36 -62 65 -59 65 2 0 34 -29 69 -65z m-38 -45 c12 -11 17 -20
11 -20 -5 0 -18 9 -28 20 -10 11 -15 20 -11 20 4 0 16 -9 28 -20z m2513 -6
c19 -20 16 -43 -7 -58 -21 -13 -51 2 -56 26 -3 16 23 48 38 48 5 0 16 -7 25
-16z m110 -49 c0 -27 -3 -30 -30 -30 -21 0 -31 5 -33 18 -6 33 6 49 35 45 24
-3 28 -8 28 -33z m307 0 c0 -5 -5 -11 -11 -13 -6 -2 -11 4 -11 13 0 9 5 15 11
13 6 -2 11 -8 11 -13z m-3996 -17 c3 -4 -7 -13 -21 -18 -37 -14 -45 -13 -45 9
0 15 7 19 30 19 17 -1 33 -5 36 -10z m47 5 c9 -9 -13 -34 -24 -27 -14 8 -11
34 4 34 8 0 17 -3 20 -7z m57 -14 c0 -5 -7 -9 -15 -9 -15 0 -20 12 -9 23 8 8
24 -1 24 -14z m50 0 c0 -5 -7 -9 -15 -9 -15 0 -20 12 -9 23 8 8 24 -1 24 -14z
m3340 6 c26 -32 -13 -81 -47 -59 -35 22 -23 74 17 74 10 0 23 -7 30 -15z
m-3580 -10 c0 -8 -4 -15 -9 -15 -13 0 -22 16 -14 24 11 11 23 6 23 -9z m320 0
c0 -8 -7 -15 -15 -15 -16 0 -20 12 -8 23 11 12 23 8 23 -8z m58 9 c33 -9 28
-34 -7 -34 -31 0 -47 13 -36 30 7 12 12 12 43 4z m-458 -19 c0 -8 -4 -15 -9
-15 -13 0 -22 16 -14 24 11 11 23 6 23 -9z m530 -10 c0 -19 -13 -25 -30 -15
-11 7 -11 11 -1 24 15 17 31 13 31 -9z m-630 -10 c0 -19 -20 -29 -32 -17 -15
15 -2 43 17 36 8 -3 15 -12 15 -19z m50 9 c0 -17 -22 -14 -28 4 -2 7 3 12 12
12 9 0 16 -7 16 -16z m632 -9 c0 -5 -5 -11 -11 -13 -6 -2 -11 4 -11 13 0 9 5
15 11 13 6 -2 11 -8 11 -13z m-732 -9 c0 -18 -52 -39 -61 -24 -4 7 -4 17 1 23
12 14 60 15 60 1z m782 -11 c0 -5 -5 -11 -11 -13 -6 -2 -11 4 -11 13 0 9 5 15
11 13 6 -2 11 -8 11 -13z m3284 -9 c8 -32 -2 -46 -30 -46 -33 0 -50 23 -36 49
16 30 58 28 66 -3z m-4148 -7 c-2 -6 -8 -10 -13 -10 -5 0 -11 4 -13 10 -2 6 4
11 13 11 9 0 15 -5 13 -11z m942 -4 c0 -8 -4 -15 -9 -15 -13 0 -22 16 -14 24
11 11 23 6 23 -9z m63 -11 c9 -4 17 -13 17 -20 0 -11 -7 -13 -27 -8 -16 4 -32
10 -37 14 -11 11 3 32 17 26 7 -4 20 -9 30 -12z m-1081 -9 c0 -5 -5 -11 -11
-13 -6 -2 -11 4 -11 13 0 9 5 15 11 13 6 -2 11 -8 11 -13z m-50 -20 c0 -5 -5
-11 -11 -13 -6 -2 -11 4 -11 13 0 9 5 15 11 13 6 -2 11 -8 11 -13z m1193 -5
c0 -8 -8 -16 -17 -18 -13 -2 -18 3 -18 18 0 15 5 20 18 18 9 -2 17 -10 17 -18z
m2833 -9 c5 -32 -23 -54 -49 -40 -19 10 -26 49 -12 63 4 4 19 6 33 4 18 -2 26
-10 28 -27z m-4072 -2 c10 -17 -13 -36 -27 -22 -12 12 -4 33 11 33 5 0 12 -5
16 -11z m1289 -8 c7 -12 -12 -24 -25 -16 -11 7 -4 25 10 25 5 0 11 -4 15 -9z
m2966 -1 c23 -13 25 -55 3 -64 -28 -11 -43 -7 -54 15 -9 16 -8 25 6 40 20 22
20 22 45 9z m-4301 -16 c0 -3 -9 -15 -20 -26 -15 -16 -23 -19 -31 -11 -18 18
-5 38 25 39 14 1 26 0 26 -2z m1380 -15 c0 -5 -7 -9 -15 -9 -15 0 -20 12 -9
23 8 8 24 -1 24 -14z m2811 1 c21 -12 25 -40 7 -58 -18 -18 -46 -14 -58 9 -9
16 -8 25 6 40 20 22 20 22 45 9z m-4261 -31 c0 -5 -7 -9 -15 -9 -15 0 -20 12
-9 23 8 8 24 -1 24 -14z m1520 -10 c0 -5 -7 -9 -15 -9 -15 0 -20 12 -9 23 8 8
24 -1 24 -14z m70 -46 c0 -17 -22 -16 -45 1 -11 8 -16 19 -12 30 6 16 8 16 32
-1 13 -10 25 -24 25 -30z m-1660 11 c0 -17 -22 -14 -28 4 -2 7 3 12 12 12 9 0
16 -7 16 -16z m3538 5 c-2 -6 -8 -10 -13 -10 -5 0 -11 4 -13 10 -2 6 4 11 13
11 9 0 15 -5 13 -11z m-3580 -30 c-2 -6 -8 -10 -13 -10 -5 0 -11 4 -13 10 -2
6 4 11 13 11 9 0 15 -5 13 -11z m1740 -12 c2 -12 -3 -17 -17 -17 -12 0 -21 6
-21 13 0 31 32 34 38 4z m-1780 -24 c-2 -10 -10 -18 -18 -18 -8 0 -16 8 -18
18 -2 12 3 17 18 17 15 0 20 -5 18 -17z m1817 -23 c-5 -8 -11 -8 -17 -2 -6 6
-7 16 -3 22 5 8 11 8 17 2 6 -6 7 -16 3 -22z m-1861 1 c7 -11 -38 -53 -47 -44
-12 12 -7 33 8 33 8 0 15 5 15 10 0 12 17 13 24 1z m1906 -27 c0 -9 -5 -14
-12 -12 -18 6 -21 28 -4 28 9 0 16 -7 16 -16z m-1970 -29 c0 -8 -4 -15 -10
-15 -5 0 -10 7 -10 15 0 8 5 15 10 15 6 0 10 -7 10 -15z m2028 -26 c-2 -6 -8
-10 -13 -10 -5 0 -11 4 -13 10 -2 6 4 11 13 11 9 0 15 -5 13 -11z m1344 -40
l87 -42 6 -52 c12 -94 11 -95 -95 -131 l-95 -32 -37 36 c-21 20 -38 43 -38 51
0 20 71 211 78 211 4 0 46 -19 94 -41z m1070 26 c0 -5 -5 -11 -11 -13 -6 -2
-11 4 -11 13 0 9 5 15 11 13 6 -2 11 -8 11 -13z m-5009 -56 c59 -23 105 -44
103 -46 -5 -5 -236 87 -236 94 0 3 6 3 13 0 6 -3 60 -24 120 -48z m509 36 c0
-5 -5 -11 -11 -13 -6 -2 -11 4 -11 13 0 9 5 15 11 13 6 -2 11 -8 11 -13z
m2124 -2 c15 -20 18 -43 6 -43 -15 0 -53 41 -47 51 9 14 26 11 41 -8z m-2158
-34 c-2 -6 -8 -10 -13 -10 -5 0 -11 4 -13 10 -2 6 4 11 13 11 9 0 15 -5 13
-11z m1629 -35 c-9 -9 -28 6 -21 18 4 6 10 6 17 -1 6 -6 8 -13 4 -17z m573 6
c0 -11 -6 -20 -14 -20 -18 0 -29 16 -21 30 11 18 35 11 35 -10z m2890 2 c0
-13 -12 -22 -22 -16 -10 6 -1 24 13 24 5 0 9 -4 9 -8z m-5125 -22 c0 -22 -29
-18 -33 3 -3 14 1 18 15 15 10 -2 18 -10 18 -18z m-275 -16 c23 -9 39 -18 37
-20 -2 -3 -24 4 -48 15 -54 24 -45 27 11 5z m4468 5 c-2 -6 -8 -10 -13 -10 -5
0 -11 4 -13 10 -2 6 4 11 13 11 9 0 15 -5 13 -11z m-1928 -14 c0 -8 -4 -15 -9
-15 -13 0 -22 16 -14 24 11 11 23 6 23 -9z m-2300 1 c0 -16 -21 -56 -30 -56
-20 0 -23 31 -4 45 19 14 34 19 34 11z m-160 -26 c8 -5 11 -10 5 -10 -5 0 -17
5 -25 10 -8 5 -10 10 -5 10 6 0 17 -5 25 -10z m4720 2 c0 -13 -12 -22 -22 -16
-10 6 -1 24 13 24 5 0 9 -4 9 -8z m-3426 -23 c-3 -5 -10 -7 -15 -3 -5 3 -7 10
-3 15 3 5 10 7 15 3 5 -3 7 -10 3 -15z m-1216 -6 c15 -3 36 -12 47 -18 11 -7
176 -75 368 -150 191 -76 345 -140 343 -142 -2 -2 -161 60 -355 137 -193 77
-360 140 -371 140 -10 0 -22 5 -25 10 -4 6 -21 17 -38 25 -18 9 -24 13 -14 10
11 -3 31 -8 45 -12z m2412 7 c0 -5 -7 -10 -15 -10 -8 0 -15 5 -15 10 0 6 7 10
15 10 8 0 15 -4 15 -10z m38 -71 c-2 -6 -8 -10 -13 -10 -5 0 -11 4 -13 10 -2
6 4 11 13 11 9 0 15 -5 13 -11z m1872 -9 c0 -5 -7 -10 -15 -10 -8 0 -15 5 -15
10 0 6 7 10 15 10 8 0 15 -4 15 -10z m-4330 -15 c0 -8 -7 -15 -15 -15 -8 0
-15 7 -15 15 0 8 7 15 15 15 8 0 15 -7 15 -15z m2485 -16 c0 -8 4 -19 8 -26
13 -20 -14 -26 -28 -7 -16 21 -19 37 -8 48 10 10 28 1 28 -15z m-2515 -30 c0
-5 -7 -9 -15 -9 -15 0 -20 12 -9 23 8 8 24 -1 24 -14z m-24 -40 c10 -17 -13
-36 -27 -22 -12 12 -4 33 11 33 5 0 12 -5 16 -11z m2572 -6 c-2 -10 -10 -18
-18 -18 -8 0 -16 8 -18 18 -2 12 3 17 18 17 15 0 20 -5 18 -17z m-1678 -3 c0
-5 -4 -10 -10 -10 -5 0 -10 5 -10 10 0 6 5 10 10 10 6 0 10 -4 10 -10z m314
-21 c-3 -5 -10 -7 -15 -3 -5 3 -7 10 -3 15 3 5 10 7 15 3 5 -3 7 -10 3 -15z
m241 1 c33 -12 25 -27 -15 -28 -28 -1 -40 15 -23 31 8 9 7 9 38 -3z m-65 -15
c0 -8 -4 -15 -9 -15 -13 0 -22 16 -14 24 11 11 23 6 23 -9z m135 -5 c0 -22
-29 -18 -33 3 -3 14 1 18 15 15 10 -2 18 -10 18 -18z m-1549 -17 c-3 -29 -29
-43 -41 -23 -7 11 22 48 37 49 4 1 5 -11 4 -26z m1334 12 c0 -8 -4 -15 -10
-15 -5 0 -10 7 -10 15 0 8 5 15 10 15 6 0 10 -7 10 -15z m270 -6 c0 -5 -7 -9
-15 -9 -15 0 -20 12 -9 23 8 8 24 -1 24 -14z m1010 -4 c0 -8 -4 -15 -9 -15
-13 0 -22 16 -14 24 11 11 23 6 23 -9z m-1328 -10 c0 -5 -5 -11 -11 -13 -6 -2
-11 4 -11 13 0 9 5 15 11 13 6 -2 11 -8 11 -13z m366 4 c-2 -6 -8 -10 -13 -10
-5 0 -11 4 -13 10 -2 6 4 11 13 11 9 0 15 -5 13 -11z m3204 -4 c0 -5 -5 -11
-11 -13 -6 -2 -11 4 -11 13 0 9 5 15 11 13 6 -2 11 -8 11 -13z m-3622 -15 c0
-11 -6 -20 -14 -20 -18 0 -29 16 -21 30 11 18 35 11 35 -10z m490 -5 c0 -8 -4
-15 -10 -15 -5 0 -10 7 -10 15 0 8 5 15 10 15 6 0 10 -7 10 -15z m-530 -12
c-1 -14 -50 -44 -60 -38 -17 10 -11 25 13 35 28 11 47 12 47 3z m590 -10 c28
-24 25 -36 -7 -28 -34 8 -47 20 -39 34 10 15 23 14 46 -6z m848 6 c-2 -6 -8
-10 -13 -10 -5 0 -11 4 -13 10 -2 6 4 11 13 11 9 0 15 -5 13 -11z m1712 1 c0
-5 -4 -10 -10 -10 -5 0 -10 5 -10 10 0 6 5 10 10 10 6 0 10 -4 10 -10z m-4372
-18 c2 -7 -3 -12 -12 -12 -9 0 -16 7 -16 16 0 17 22 14 28 -4z m942 -28 c23
-9 39 -18 37 -20 -2 -3 -24 4 -48 15 -54 24 -45 27 11 5z m202 1 c0 -5 -5 -11
-11 -13 -6 -2 -11 4 -11 13 0 9 5 15 11 13 6 -2 11 -8 11 -13z m728 -10 c0
-19 -13 -25 -29 -15 -19 11 -6 41 14 34 8 -3 15 -12 15 -19z m810 -26 c0 -5
-7 -9 -15 -9 -15 0 -20 12 -9 23 8 8 24 -1 24 -14z m-2710 -10 c0 -5 -7 -9
-15 -9 -15 0 -20 12 -9 23 8 8 24 -1 24 -14z m1088 7 c12 -1 26 -6 30 -12 9
-15 380 -164 408 -164 12 0 27 -6 33 -14 6 -8 39 -24 72 -36 33 -13 58 -25 56
-27 -5 -4 -127 40 -159 58 -24 12 -28 11 -28 -6 0 -16 -12 -20 -23 -8 -4 3 -2
11 3 18 7 8 -51 35 -213 100 -212 84 -283 115 -227 99 14 -4 35 -8 48 -8z
m844 -11 c0 -5 -5 -11 -11 -13 -6 -2 -11 4 -11 13 0 9 5 15 11 13 6 -2 11 -8
11 -13z m788 -54 c0 -22 5 -43 10 -46 8 -5 7 -11 -1 -21 -17 -20 -27 -9 -27
31 0 20 -5 41 -11 49 -12 14 -5 26 16 26 9 0 13 -13 13 -39z m-2740 8 c0 -5
-7 -9 -15 -9 -15 0 -20 12 -9 23 8 8 24 -1 24 -14z m1098 10 c-2 -6 -8 -10
-13 -10 -5 0 -11 4 -13 10 -2 6 4 11 13 11 9 0 15 -5 13 -11z m892 -5 c0 -9
-5 -14 -12 -12 -18 6 -21 28 -4 28 9 0 16 -7 16 -16z m-925 -44 c0 -22 -29
-18 -33 3 -3 14 1 18 15 15 10 -2 18 -10 18 -18z m966 -23 c-1 -12 -15 -9 -19
4 -3 6 1 10 8 8 6 -3 11 -8 11 -12z m-1002 -12 c-9 -38 -13 -45 -25 -45 -23 0
-27 21 -8 40 20 19 37 22 33 5z m1024 -12 c2 -5 7 -20 11 -35 5 -21 3 -28 -9
-28 -8 0 -15 6 -15 14 0 8 -5 16 -12 18 -6 2 -9 12 -5 21 7 18 23 23 30 10z
m702 -32 c7 -12 -12 -24 -25 -16 -11 7 -4 25 10 25 5 0 11 -4 15 -9z m-1105
-16 c0 -8 -4 -15 -9 -15 -13 0 -22 16 -14 24 11 11 23 6 23 -9z m-658 -10 c0
-5 -5 -11 -11 -13 -6 -2 -11 4 -11 13 0 9 5 15 11 13 6 -2 11 -8 11 -13z m714
4 c9 -15 -11 -33 -30 -26 -9 4 -13 13 -10 22 7 17 30 20 40 4z m-228 -26 c5
-18 -28 -29 -38 -12 -5 7 -6 17 -3 22 7 12 35 5 41 -10z m607 -13 c0 -8 -8
-16 -17 -18 -13 -2 -18 3 -18 18 0 15 5 20 18 18 9 -2 17 -10 17 -18z m667 5
c0 -5 -5 -11 -11 -13 -6 -2 -11 4 -11 13 0 9 5 15 11 13 6 -2 11 -8 11 -13z
m710 0 c0 -5 -5 -11 -11 -13 -6 -2 -11 4 -11 13 0 9 5 15 11 13 6 -2 11 -8 11
-13z m-2032 -16 c0 -20 -21 -49 -35 -49 -24 0 -26 18 -3 39 24 23 38 27 38 10z
m-620 -19 c0 -5 -4 -10 -10 -10 -5 0 -10 5 -10 10 0 6 5 10 10 10 6 0 10 -4
10 -10z m940 0 c8 -5 11 -10 5 -10 -5 0 -17 5 -25 10 -8 5 -10 10 -5 10 6 0
17 -5 25 -10z m-790 -10 c0 -5 -4 -10 -10 -10 -5 0 -10 5 -10 10 0 6 5 10 10
10 6 0 10 -4 10 -10z m860 -16 c23 -9 39 -18 37 -20 -2 -3 -24 4 -48 15 -54
24 -45 27 11 5z m270 1 c0 -8 -4 -15 -9 -15 -13 0 -22 16 -14 24 11 11 23 6
23 -9z m-839 -18 c-13 -13 -26 -3 -16 12 3 6 11 8 17 5 6 -4 6 -10 -1 -17z
m1501 -2 c0 -5 -5 -11 -11 -13 -6 -2 -11 4 -11 13 0 9 5 15 11 13 6 -2 11 -8
11 -13z m-1807 -25 c-5 -8 -11 -8 -17 -2 -6 6 -7 16 -3 22 5 8 11 8 17 2 6 -6
7 -16 3 -22z m435 20 c0 -5 -7 -10 -15 -10 -8 0 -15 5 -15 10 0 6 7 10 15 10
8 0 15 -4 15 -10z m520 -10 c8 -5 11 -10 5 -10 -5 0 -17 5 -25 10 -8 5 -10 10
-5 10 6 0 17 -5 25 -10z m192 -15 c0 -5 -5 -11 -11 -13 -6 -2 -11 4 -11 13 0
9 5 15 11 13 6 -2 11 -8 11 -13z m55 -81 c120 -48 223 -91 228 -96 10 -10 -12
-1 -184 68 -64 25 -96 34 -99 26 -4 -14 -32 -16 -32 -3 0 5 8 11 17 13 10 2
-21 18 -70 37 -77 30 -99 41 -82 41 3 0 103 -39 222 -86z m609 52 c-3 -11 -6
-24 -6 -28 0 -5 -6 -8 -14 -8 -13 0 -20 45 -10 62 10 17 35 -6 30 -26z m-1818
-13 c-2 -10 -10 -18 -18 -18 -8 0 -16 8 -18 18 -2 12 3 17 18 17 15 0 20 -5
18 -17z m1616 -4 c-3 -5 -10 -7 -15 -3 -5 3 -7 10 -3 15 3 5 10 7 15 3 5 -3 7
-10 3 -15z m-1204 -4 c0 -8 -4 -15 -9 -15 -13 0 -22 16 -14 24 11 11 23 6 23
-9z m-422 -55 c0 -23 -4 -30 -19 -30 -21 0 -22 3 -13 38 9 32 31 27 32 -8z
m1822 9 c0 -12 -29 -24 -37 -16 -3 4 -3 13 0 21 6 16 37 11 37 -5z m-1408 -4
c0 -5 -5 -11 -11 -13 -6 -2 -11 4 -11 13 0 9 5 15 11 13 6 -2 11 -8 11 -13z
m744 -27 c4 -6 2 -14 -4 -16 -7 -2 -12 -10 -12 -18 0 -8 -6 -14 -14 -14 -12 0
-15 27 -7 58 2 7 31 0 37 -10z m-738 -31 c2 -12 -3 -17 -17 -17 -12 0 -21 6
-21 13 0 31 32 34 38 4z m2717 -7 c0 -18 -6 -26 -23 -28 -27 -4 -40 22 -22 44
19 22 45 13 45 -16z m-1335 10 c0 -5 -7 -10 -15 -10 -8 0 -15 5 -15 10 0 6 7
10 15 10 8 0 15 -4 15 -10z m-1810 -16 c0 -9 -5 -14 -12 -12 -18 6 -21 28 -4
28 9 0 16 -7 16 -16z m437 -40 c13 -29 9 -44 -11 -44 -13 0 -28 55 -18 65 10
10 17 4 29 -21z m701 3 c2 -12 -3 -17 -17 -17 -12 0 -21 6 -21 13 0 31 32 34
38 4z m2180 -3 c2 -12 -4 -24 -12 -27 -20 -8 -47 19 -39 39 8 22 47 13 51 -12z
m-1520 5 c-2 -6 -8 -10 -13 -10 -5 0 -11 4 -13 10 -2 6 4 11 13 11 9 0 15 -5
13 -11z m-1931 -45 c-9 -9 -28 6 -21 18 4 6 10 6 17 -1 6 -6 8 -13 4 -17z
m133 1 c0 -8 -4 -15 -9 -15 -13 0 -22 16 -14 24 11 11 23 6 23 -9z m1108 -7
c-6 -18 -28 -21 -28 -4 0 9 7 16 16 16 9 0 14 -5 12 -12z m1899 -4 c8 -21 -19
-46 -40 -38 -17 6 -23 35 -10 47 12 13 44 7 50 -9z m-2547 -19 c0 -8 -4 -15
-9 -15 -13 0 -22 16 -14 24 11 11 23 6 23 -9z m1320 -6 c0 -5 -7 -9 -15 -9
-15 0 -20 12 -9 23 8 8 24 -1 24 -14z m-1772 -17 c2 -7 -3 -12 -12 -12 -9 0
-16 7 -16 16 0 17 22 14 28 -4z m1070 0 c2 -7 -3 -12 -12 -12 -9 0 -16 7 -16
16 0 17 22 14 28 -4z m678 -47 c-14 -31 -35 -32 -32 -2 4 36 15 50 31 37 10
-8 10 -16 1 -35z m-1826 25 c0 -5 -7 -10 -15 -10 -8 0 -15 5 -15 10 0 6 7 10
15 10 8 0 15 -4 15 -10z m2096 -17 c-10 -10 -19 5 -10 18 6 11 8 11 12 0 2 -7
1 -15 -2 -18z m-1516 -4 c0 -5 -7 -9 -15 -9 -15 0 -20 12 -9 23 8 8 24 -1 24
-14z m-491 -3 c9 -10 9 -16 1 -21 -17 -11 -40 3 -34 20 8 19 18 19 33 1z
m1001 -11 c0 -8 -4 -15 -9 -15 -13 0 -22 16 -14 24 11 11 23 6 23 -9z m2370 0
c10 -12 10 -18 0 -30 -25 -30 -61 -7 -46 30 3 8 12 15 19 15 8 0 20 -7 27 -15z
m-2840 -21 c0 -9 -5 -14 -12 -12 -18 6 -21 28 -4 28 9 0 16 -7 16 -16z m435
-4 c0 -15 -52 -36 -63 -25 -8 8 39 46 53 41 6 -1 10 -9 10 -16z m-948 -26 c13
-29 9 -44 -11 -44 -8 0 -16 12 -19 27 -9 48 11 59 30 17z m568 5 c0 -7 -8 -15
-17 -17 -18 -3 -25 18 -11 32 10 10 28 1 28 -15z m1128 15 c9 -10 -4 -34 -19
-34 -8 0 -14 9 -14 20 0 19 19 27 33 14z m-818 -34 c0 -22 -29 -18 -33 3 -3
14 1 18 15 15 10 -2 18 -10 18 -18z m2620 10 c3 -5 -1 -10 -9 -10 -9 0 -16 5
-16 10 0 6 4 10 9 10 6 0 13 -4 16 -10z m-2427 -112 c496 -62 902 -115 902
-118 0 -3 -88 5 -195 18 l-195 25 -23 -27 c-26 -30 -40 -25 -31 10 4 13 4 24
1 24 -23 0 -1372 172 -1376 175 -8 8 -10 9 917 -107z m-428 91 c0 -23 -9 -24
-44 -6 -31 17 -27 24 14 25 23 0 30 -4 30 -19z m40 -10 c0 -5 -4 -9 -10 -9 -5
0 -10 7 -10 16 0 8 5 12 10 9 6 -3 10 -10 10 -16z m132 6 c0 -5 -5 -11 -11
-13 -6 -2 -11 4 -11 13 0 9 5 15 11 13 6 -2 11 -8 11 -13z m2146 -11 c4 -28
-28 -41 -45 -19 -16 23 -5 47 21 43 13 -2 22 -11 24 -24z m-2193 7 c7 -12 -12
-24 -25 -16 -11 7 -4 25 10 25 5 0 11 -4 15 -9z m895 -16 c0 -8 -4 -15 -10
-15 -5 0 -10 7 -10 15 0 8 5 15 10 15 6 0 10 -7 10 -15z m-1648 -20 c0 -5 -5
-11 -11 -13 -6 -2 -11 4 -11 13 0 9 5 15 11 13 6 -2 11 -8 11 -13z m1628 -26
c0 -5 -7 -9 -15 -9 -15 0 -20 12 -9 23 8 8 24 -1 24 -14z m1634 -14 c5 -14
-18 -45 -34 -45 -13 0 -28 32 -23 48 6 17 50 15 57 -3z m-3224 -36 c0 -5 -7
-9 -15 -9 -15 0 -20 12 -9 23 8 8 24 -1 24 -14z m3038 12 c21 -13 10 -46 -16
-49 -27 -4 -40 22 -22 43 14 17 20 18 38 6z m-1496 -26 c0 -5 -5 -11 -11 -13
-6 -2 -11 4 -11 13 0 9 5 15 11 13 6 -2 11 -8 11 -13z m-1514 -26 c-2 -6 -8
-10 -13 -10 -5 0 -11 4 -13 10 -2 6 4 11 13 11 9 0 15 -5 13 -11z m37 -49 c0
-8 -8 -16 -17 -18 -13 -2 -18 3 -18 18 0 15 5 20 18 18 9 -2 17 -10 17 -18z
m2237 -5 c0 -5 -5 -11 -11 -13 -6 -2 -11 4 -11 13 0 9 5 15 11 13 6 -2 11 -8
11 -13z m-835 -11 c8 -20 -8 -36 -26 -25 -15 10 -8 41 9 41 6 0 13 -7 17 -16z
m983 6 c0 -5 -4 -10 -10 -10 -5 0 -10 5 -10 10 0 6 5 10 10 10 6 0 10 -4 10
-10z m-2351 -29 c13 -10 21 -23 17 -30 -10 -16 -36 -14 -36 4 0 8 -4 15 -10
15 -5 0 -10 7 -10 15 0 20 10 19 39 -4z m721 -21 c0 -5 -4 -10 -10 -10 -5 0
-10 5 -10 10 0 6 5 10 10 10 6 0 10 -4 10 -10z m602 -5 c0 -5 -5 -11 -11 -13
-6 -2 -11 4 -11 13 0 9 5 15 11 13 6 -2 11 -8 11 -13z m-1280 -30 c0 -5 -5
-11 -11 -13 -6 -2 -11 4 -11 13 0 9 5 15 11 13 6 -2 11 -8 11 -13z m1246 -6
c-2 -6 -8 -10 -13 -10 -5 0 -11 4 -13 10 -2 6 4 11 13 11 9 0 15 -5 13 -11z
m-448 -9 c0 -5 -4 -10 -10 -10 -5 0 -10 5 -10 10 0 6 5 10 10 10 6 0 10 -4 10
-10z m-730 -41 c0 -5 -7 -9 -15 -9 -15 0 -20 12 -9 23 8 8 24 -1 24 -14z
m1110 1 c0 -5 -7 -10 -15 -10 -8 0 -15 -7 -15 -15 0 -16 -46 -39 -60 -30 -4 3
-10 -5 -13 -16 -3 -12 -11 -19 -18 -17 -26 9 -19 27 15 43 20 10 36 21 36 26
0 5 9 9 19 9 11 0 23 5 26 10 3 6 10 10 16 10 5 0 9 -4 9 -10z m-1070 -31 c0
-5 -7 -9 -15 -9 -15 0 -20 12 -9 23 8 8 24 -1 24 -14z m3037 -5 c-9 -9 -28 6
-21 18 4 6 10 6 17 -1 6 -6 8 -13 4 -17z m1263 16 c0 -6 -28 -10 -65 -10 -37
0 -65 4 -65 10 0 6 28 10 65 10 37 0 65 -4 65 -10z m-4250 -40 c0 -21 -24 -28
-35 -10 -8 14 3 30 21 30 8 0 14 -9 14 -20z m55 -20 c22 -8 25 -13 15 -25 -10
-12 -15 -12 -36 2 -42 27 -29 42 21 23z m805 -15 c0 -8 -4 -15 -9 -15 -13 0
-22 16 -14 24 11 11 23 6 23 -9z m-1016 -27 c18 -111 26 -181 21 -186 -11 -11
-140 -62 -157 -62 -25 0 -148 62 -147 75 0 5 13 39 27 75 l27 65 95 32 c123
41 128 41 134 1z m3061 11 c22 -10 29 -16 15 -13 -28 7 -80 33 -65 33 6 0 28
-9 50 -20z m-2795 -4 c0 -8 -4 -15 -9 -15 -13 0 -22 16 -14 24 11 11 23 6 23
-9z m702 0 c0 -5 -5 -11 -11 -13 -6 -2 -11 4 -11 13 0 9 5 15 11 13 6 -2 11
-8 11 -13z m3456 -2 c-49 -2 -127 -2 -175 0 -49 1 -9 3 87 3 96 0 136 -2 88
-3z m-4080 -24 c-2 -6 -8 -10 -13 -10 -5 0 -11 4 -13 10 -2 6 4 11 13 11 9 0
15 -5 13 -11z m509 -5 c7 -19 -9 -31 -39 -29 -30 2 -33 18 -6 31 33 16 38 16
45 -2z m41 5 c-2 -6 -8 -10 -13 -10 -5 0 -11 4 -13 10 -2 6 4 11 13 11 9 0 15
-5 13 -11z m2345 -39 c60 -23 107 -44 105 -46 -5 -4 -229 83 -237 93 -7 8 -3
6 132 -47z m-2843 25 c0 -8 -4 -15 -9 -15 -13 0 -22 16 -14 24 11 11 23 6 23
-9z m60 -9 c0 -8 -5 -18 -11 -22 -14 -8 -33 11 -25 25 10 16 36 13 36 -3z
m316 3 c10 -17 -13 -36 -27 -22 -12 12 -4 33 11 33 5 0 12 -5 16 -11z m-236
-14 c0 -21 -16 -26 -45 -15 -33 12 -25 27 15 28 19 0 30 -4 30 -13z m178 -3
c2 -7 -3 -12 -12 -12 -9 0 -16 7 -16 16 0 17 22 14 28 -4z m-138 -7 c0 -8 -4
-15 -10 -15 -5 0 -10 7 -10 15 0 8 5 15 10 15 6 0 10 -7 10 -15z m80 -1 c0 -8
-4 -12 -10 -9 -5 3 -10 10 -10 16 0 5 5 9 10 9 6 0 10 -7 10 -16z m3950 -35
c0 -5 -29 -9 -65 -9 -36 0 -65 4 -65 8 0 4 29 8 65 9 36 1 65 -3 65 -8z
m-2520 -24 c0 -8 -14 -22 -31 -31 -23 -11 -30 -21 -26 -35 3 -10 1 -17 -4 -13
-18 11 -8 35 21 52 21 11 29 23 26 35 -2 9 0 15 5 11 5 -3 9 -12 9 -19z m1597
-112 c161 -64 291 -118 289 -120 -4 -4 -608 236 -616 245 -7 8 9 2 327 -125z
m941 40 c-49 -2 -127 -2 -175 0 -49 1 -9 3 87 3 96 0 136 -2 88 -3z m-4386
-129 c77 -12 108 -21 110 -31 2 -9 2 -60 0 -115 l-3 -101 -49 6 c-26 3 -65 14
-86 24 -37 17 -40 23 -60 98 -34 129 -35 135 -27 135 5 0 56 -7 115 -16z
m1813 -4 c3 -6 -1 -7 -9 -4 -18 7 -21 14 -7 14 6 0 13 -4 16 -10z m1514 -524
c406 -406 522 -528 517 -541 -3 -10 -9 -16 -11 -14 -61 53 -1055 1057 -1055
1066 0 7 6 13 13 13 6 0 248 -236 536 -524z m-1479 489 c0 -8 -15 -22 -32 -32
l-33 -18 118 -5 118 -5 175 -144 174 -145 -2 -325 -3 -326 -327 -3 -328 -2
-175 145 -175 146 2 327 3 327 208 3 c123 1 207 6 207 12 0 5 14 17 31 25 20
11 29 21 25 31 -3 9 -1 12 4 9 6 -3 10 -13 10 -20z m1988 -27 c29 -11 52 -22
49 -24 -4 -5 -127 43 -136 52 -3 4 3 4 14 0 11 -4 44 -17 73 -28z m364 -145
c147 -59 266 -108 264 -110 -4 -4 -558 216 -566 225 -7 8 10 1 302 -115z
m-891 -16 c-1 -12 -15 -9 -19 4 -3 6 1 10 8 8 6 -3 11 -8 11 -12z m1199 -107
c8 -5 11 -10 5 -10 -5 0 -17 5 -25 10 -8 5 -10 10 -5 10 6 0 17 -5 25 -10z
m50 -20 c8 -5 11 -10 5 -10 -5 0 -17 5 -25 10 -8 5 -10 10 -5 10 6 0 17 -5 25
-10z m183 -72 c71 -27 127 -52 125 -54 -5 -4 -279 104 -287 113 -7 8 3 4 162
-59z m167 -68 c8 -5 11 -10 5 -10 -5 0 -17 5 -25 10 -8 5 -10 10 -5 10 6 0 17
-5 25 -10z m-313 -212 c-53 -65 -110 -126 -95 -102 21 33 123 152 127 148 2
-2 -12 -23 -32 -46z m-414 -60 c38 -32 65 -58 61 -58 -9 0 -139 106 -156 128
-12 16 -11 16 7 2 11 -8 51 -41 88 -72z m-4711 17 c0 -5 -5 -11 -11 -13 -6 -2
-11 4 -11 13 0 9 5 15 11 13 6 -2 11 -8 11 -13z m5507 -139 c-68 -81 -91 -103
-72 -73 17 28 137 166 141 162 2 -2 -29 -42 -69 -89z m-3994 -86 c3 -5 1 -10
-4 -10 -6 0 -11 5 -11 10 0 6 2 10 4 10 3 0 8 -4 11 -10z m-1497 -75 c3 -10
-20 -40 -61 -78 -139 -134 -260 -319 -337 -514 -33 -85 -56 -107 -85 -83 -22
19 -19 44 21 144 79 200 237 426 384 549 29 25 35 26 54 14 11 -8 23 -22 24
-32z m5510 16 c-13 -17 -27 -30 -31 -30 -5 -1 2 12 15 28 13 17 27 30 31 30 5
1 -2 -12 -15 -28z m-932 -52 c79 -66 110 -98 63 -65 -20 14 -25 10 -106 -85
-46 -54 -86 -99 -89 -99 -9 0 3 15 87 112 l79 93 -23 20 c-12 11 -42 37 -67
58 -24 20 -40 37 -36 37 5 0 46 -32 92 -71z m-1505 -149 c30 -16 50 -30 46
-30 -11 0 -107 49 -107 55 0 8 5 6 61 -25z m2169 -23 c0 -6 -13 2 -30 18 -16
16 -30 30 -30 33 0 2 14 -6 30 -18 17 -12 30 -26 30 -33z m-5086 27 c28 -11
18 -50 -20 -79 l-37 -28 -18 24 c-10 13 -19 27 -19 31 0 6 69 58 77 58 1 0 8
-3 17 -6z m-674 -18 c0 -8 -18 -59 -40 -114 -34 -85 -78 -235 -93 -322 -2 -14
-5 -3 -6 25 -2 38 -4 45 -11 30 -29 -67 13 134 50 240 46 134 57 155 79 155
12 0 21 -6 21 -14z m3650 -116 c0 -11 -180 82 -180 93 0 4 41 -14 90 -39 50
-26 90 -50 90 -54z m-3105 41 c-3 -5 -1 -13 5 -16 8 -5 7 -11 -1 -21 -9 -11
-9 -14 0 -14 7 0 9 -5 6 -10 -4 -6 -11 -8 -16 -4 -5 3 -8 1 -7 -4 2 -5 -26
-44 -62 -86 -36 -42 -90 -114 -121 -159 -56 -84 -81 -99 -103 -65 -15 25 102
194 210 302 79 79 104 101 89 77z m2925 -38 c0 9 177 -80 185 -94 12 -18 -18
-8 -116 41 -60 31 -97 55 -93 61 4 8 9 7 15 -2 5 -8 9 -10 9 -6z m-2556 -58
c4 -11 -8 -24 -40 -43 -25 -15 -68 -42 -96 -59 -27 -18 -53 -33 -58 -33 -7 0
-23 42 -17 45 1 1 17 12 36 25 54 37 135 80 152 80 9 0 20 -7 23 -15z m2744
-133 c7 -23 -25 -12 -148 53 -141 74 -134 70 -125 84 7 13 266 -118 273 -137z
m1897 83 c-15 -19 -30 -33 -33 -31 -5 6 51 75 57 70 1 -1 -9 -19 -24 -39z
m-377 -36 c-65 -78 -102 -117 -87 -92 24 36 114 142 122 142 5 1 -11 -22 -35
-50z m-1059 -16 c49 -37 66 -71 66 -131 0 -71 -29 -116 -93 -144 -63 -28 -120
-18 -171 30 -64 61 -68 153 -8 218 58 63 143 73 206 27z m-546 -80 c50 -25 86
-48 79 -50 -14 -5 -182 78 -182 90 0 12 6 9 103 -40z m-2936 17 c-4 -17 -2
-18 16 -9 12 6 -18 -27 -68 -74 -49 -47 -95 -86 -102 -87 -17 0 -24 15 -17 35
6 15 161 155 172 155 2 0 2 -9 -1 -20z m348 -80 c4 -6 -24 -24 -62 -42 -37
-18 -89 -44 -115 -60 -54 -31 -90 -30 -57 3 23 23 188 108 211 108 9 1 20 -4
23 -9z m4849 -49 c-2 -3 -19 10 -37 28 l-32 34 37 -29 c20 -15 35 -30 32 -33z
m-2244 4 c27 -13 52 -29 55 -35 4 -6 -20 3 -54 20 -34 16 -61 32 -61 35 0 9
10 5 60 -20z m1020 6 c0 -5 -7 -11 -14 -14 -10 -4 -13 -1 -9 9 6 15 23 19 23
5z m34 -57 c3 -8 2 -12 -4 -9 -6 3 -10 10 -10 16 0 14 7 11 14 -7z m-3925 -55
c-27 -21 -35 -23 -44 -10 -8 14 34 41 52 34 12 -5 11 -10 -8 -24z m1876 -49
c3 -5 -1 -10 -9 -10 -9 0 -16 5 -16 10 0 6 4 10 9 10 6 0 13 -4 16 -10z m25
-20 c0 -5 -5 -10 -11 -10 -5 0 -7 5 -4 10 3 6 8 10 11 10 2 0 4 -4 4 -10z
m1860 -10 c0 -5 -5 -10 -11 -10 -5 0 -7 5 -4 10 3 6 8 10 11 10 2 0 4 -4 4
-10z m-3520 -10 c0 -5 -2 -10 -5 -10 -2 0 -27 -9 -56 -20 -31 -12 -49 -16 -47
-9 2 6 24 20 48 29 55 22 60 23 60 10z m2457 -26 c-9 -9 -28 6 -21 18 4 6 10
6 17 -1 6 -6 8 -13 4 -17z m-727 -56 c0 -5 5 -6 10 -3 6 3 10 1 10 -5 0 -7 -7
-9 -16 -6 -9 3 -20 6 -25 6 -5 0 -9 7 -9 15 0 9 6 12 15 9 8 -4 15 -10 15 -16z
m-82 -10 c-3 -7 -11 -13 -18 -13 -7 0 -15 6 -17 13 -3 7 4 12 17 12 13 0 20
-5 18 -12z m22 -18 c0 -5 -5 -10 -11 -10 -5 0 -7 5 -4 10 3 6 8 10 11 10 2 0
4 -4 4 -10z m30 -10 c0 -5 -4 -10 -10 -10 -5 0 -10 5 -10 10 0 6 5 10 10 10 6
0 10 -4 10 -10z m46 -23 c14 5 19 -8 7 -20 -8 -9 -33 12 -32 27 0 7 2 7 5 -1
3 -7 12 -9 20 -6z m1194 3 c0 -5 -4 -10 -10 -10 -5 0 -10 5 -10 10 0 6 5 10
10 10 6 0 10 -4 10 -10z m1290 0 c0 -5 -4 -10 -10 -10 -5 0 -10 5 -10 10 0 6
5 10 10 10 6 0 10 -4 10 -10z m-2415 -50 c4 -6 11 -8 16 -5 5 4 9 2 9 -4 0 -5
-4 -13 -10 -16 -5 -3 -10 -1 -10 4 0 6 -7 11 -15 11 -8 0 -15 5 -15 10 0 13
17 13 25 0z m-75 -19 c0 -16 -14 -20 -27 -10 -19 17 -16 28 7 22 11 -3 20 -9
20 -12z m-110 -10 c0 -5 9 -7 20 -4 11 3 20 1 20 -5 0 -19 -18 -23 -40 -10
-21 14 -27 28 -10 28 6 0 10 -4 10 -9z m2948 -27 c4 -41 -21 -68 -49 -54 -12
7 -19 21 -19 38 0 59 62 73 68 16z m-2788 12 c0 -3 -4 -8 -10 -11 -5 -3 -10
-1 -10 4 0 6 5 11 10 11 6 0 10 -2 10 -4z m1820 -6 c0 -5 -5 -10 -11 -10 -5 0
-7 5 -4 10 3 6 8 10 11 10 2 0 4 -4 4 -10z m-1906 -21 c-3 -5 -10 -7 -15 -3
-5 3 -7 10 -3 15 3 5 10 7 15 3 5 -3 7 -10 3 -15z m2216 11 c0 -5 -5 -10 -11
-10 -5 0 -7 5 -4 10 3 6 8 10 11 10 2 0 4 -4 4 -10z m-2084 -13 c8 3 14 0 14
-6 0 -12 -11 -14 -34 -5 -9 3 -13 11 -9 17 5 8 8 8 10 0 3 -7 11 -9 19 -6z
m-96 -12 c0 -8 -4 -15 -10 -15 -5 0 -10 7 -10 15 0 8 5 15 10 15 6 0 10 -7 10
-15z m60 -26 c0 -6 7 -9 15 -5 9 3 19 -3 26 -15 15 -28 6 -33 -28 -17 -27 13
-45 48 -24 48 6 0 11 -5 11 -11z m110 -11 c0 -5 5 -6 10 -3 6 3 10 1 10 -4 0
-13 -2 -13 -35 -1 -14 5 -24 14 -20 20 7 11 35 2 35 -12z m-190 -18 c0 -5 -4
-10 -10 -10 -5 0 -10 5 -10 10 0 6 5 10 10 10 6 0 10 -4 10 -10z m36 -11 c8
-14 -18 -31 -30 -19 -9 9 0 30 14 30 5 0 12 -5 16 -11z m2792 -1 c15 -15 16
-63 2 -88 -30 -56 -90 -44 -90 17 0 59 55 104 88 71z m-2908 -8 c0 -5 -7 -10
-15 -10 -8 0 -15 5 -15 10 0 6 7 10 15 10 8 0 15 -4 15 -10z m55 -31 c-8 -12
-32 -12 -40 1 -11 18 5 31 26 20 11 -6 17 -15 14 -21z m95 11 c0 -5 -4 -10
-10 -10 -5 0 -10 5 -10 10 0 6 5 10 10 10 6 0 10 -4 10 -10z m136 -3 c16 6 19
-12 4 -22 -12 -8 -42 20 -32 29 4 4 8 3 10 -3 2 -5 10 -7 18 -4z m1449 -7 c3
-5 1 -10 -4 -10 -6 0 -11 5 -11 10 0 6 2 10 4 10 3 0 8 -4 11 -10z m-1545 -10
c0 -5 -4 -10 -10 -10 -5 0 -10 5 -10 10 0 6 5 10 10 10 6 0 10 -4 10 -10z
m970 -5 c0 -8 -4 -15 -10 -15 -5 0 -10 7 -10 15 0 8 5 15 10 15 6 0 10 -7 10
-15z m-1052 -14 c3 -8 -1 -12 -9 -9 -7 2 -15 10 -17 17 -3 8 1 12 9 9 7 -2 15
-10 17 -17z m142 -12 c0 -5 5 -7 10 -4 12 7 40 -12 40 -26 0 -9 -24 -7 -52 6
-19 8 -25 35 -8 35 6 0 10 -5 10 -11z m114 -4 c11 -8 16 -18 11 -22 -4 -5 -10
-2 -12 5 -3 6 -14 12 -24 12 -11 0 -17 5 -14 10 8 13 16 12 39 -5z m-199 -5
c11 -17 -5 -32 -21 -19 -8 6 -14 15 -14 20 0 12 27 11 35 -1z m1865 0 c0 -5
-5 -10 -11 -10 -5 0 -7 5 -4 10 3 6 8 10 11 10 2 0 4 -4 4 -10z m-1942 -39 c3
-8 -1 -12 -9 -9 -7 2 -15 10 -17 17 -3 8 1 12 9 9 7 -2 15 -10 17 -17z m120 7
c-3 -7 -11 -13 -18 -13 -7 0 -15 6 -17 13 -3 7 4 12 17 12 13 0 20 -5 18 -12z
m-218 -14 c0 -8 -4 -12 -10 -9 -5 3 -10 10 -10 16 0 5 5 9 10 9 6 0 10 -7 10
-16z m40 -28 c-13 -13 -35 7 -25 24 5 8 11 8 21 -1 10 -8 12 -15 4 -23z m107
19 c3 -9 3 -18 1 -21 -9 -9 -38 8 -38 22 0 19 29 18 37 -1z m111 4 c-2 -6 -8
-10 -13 -10 -5 0 -11 4 -13 10 -2 6 4 11 13 11 9 0 15 -5 13 -11z m129 -2 c10
4 14 2 11 -7 -6 -18 -20 -22 -37 -11 -8 5 -10 14 -5 22 5 9 9 10 11 2 3 -7 11
-9 20 -6z m-72 -17 c3 -5 3 -15 0 -20 -7 -12 -45 5 -45 20 0 13 37 13 45 0z
m-234 -23 c-13 -13 -26 -3 -16 12 3 6 11 8 17 5 6 -4 6 -10 -1 -17z m129 3 c0
-5 -7 -10 -15 -10 -8 0 -15 5 -15 10 0 6 7 10 15 10 8 0 15 -4 15 -10z m1571
-13 c-10 -9 -11 -8 -5 6 3 10 9 15 12 12 3 -3 0 -11 -7 -18z m-1431 3 c0 -5 6
-7 14 -4 8 3 19 -3 25 -15 16 -29 14 -33 -11 -25 -30 8 -59 34 -52 45 7 12 24
11 24 -1z m123 -13 c4 3 7 1 7 -5 0 -6 -4 -14 -10 -17 -5 -3 -10 -2 -10 3 0 5
-9 12 -21 15 -12 3 -18 10 -14 17 5 8 12 7 24 -4 10 -9 21 -13 24 -9z m-343 3
c0 -5 -4 -10 -9 -10 -6 0 -13 5 -16 10 -3 6 1 10 9 10 9 0 16 -4 16 -10z
m2694 -6 c7 -19 -17 -62 -40 -71 -18 -7 -44 14 -44 35 0 41 71 71 84 36z
m-2556 -11 c6 -19 -25 -16 -32 3 -4 11 -1 14 11 12 9 -2 18 -9 21 -15z m-78
-18 c0 -8 -7 -15 -15 -15 -8 0 -15 7 -15 15 0 8 7 15 15 15 8 0 15 -7 15 -15z
m115 5 c3 -6 -1 -13 -10 -16 -19 -8 -30 0 -20 15 8 14 22 14 30 1z m-215 -20
c0 -5 -4 -10 -10 -10 -5 0 -10 5 -10 10 0 6 5 10 10 10 6 0 10 -4 10 -10z
m150 -11 c0 -14 -5 -19 -17 -17 -26 5 -29 38 -4 38 15 0 21 -6 21 -21z m108 3
c2 -7 -3 -12 -12 -12 -9 0 -16 7 -16 16 0 17 22 14 28 -4z m-348 -2 c0 -5 6
-7 14 -4 16 6 31 -12 17 -21 -6 -3 -19 0 -31 7 -21 14 -27 28 -10 28 6 0 10
-4 10 -10z m128 -7 c-4 -22 -22 -20 -26 1 -2 10 3 16 13 16 10 0 15 -7 13 -17z
m348 4 c16 6 19 -12 4 -22 -12 -8 -42 20 -32 29 4 4 8 3 10 -3 2 -5 10 -7 18
-4z m-77 -6 c13 -8 8 -31 -7 -31 -17 1 -34 19 -28 29 9 13 16 14 35 2z m-3490
-13 c-3 -24 1 -38 11 -38 5 0 7 7 4 15 -4 8 -1 15 6 15 6 0 8 -4 5 -10 -3 -5
-1 -10 5 -10 6 0 8 -4 5 -10 -8 -13 -42 -13 -50 0 -3 6 -3 19 0 30 7 22 17 27
14 8z m3262 -11 c-1 -12 -15 -9 -19 4 -3 6 1 10 8 8 6 -3 11 -8 11 -12z m120
0 c-1 -12 -15 -9 -19 4 -3 6 1 10 8 8 6 -3 11 -8 11 -12z m-216 -7 c-3 -5 -10
-10 -16 -10 -5 0 -9 5 -9 10 0 6 7 10 16 10 8 0 12 -4 9 -10z m-1235 -24 c42
-13 31 -14 -170 -14 -214 -1 -240 5 -116 28 67 12 230 4 286 -14z m1266 -3
c-10 -10 -19 5 -10 18 6 11 8 11 12 0 2 -7 1 -15 -2 -18z m108 6 c-3 -5 -10
-7 -15 -3 -5 3 -7 10 -3 15 3 5 10 7 15 3 5 -3 7 -10 3 -15z m263 -6 c7 -9 9
-21 6 -26 -5 -8 -8 -7 -11 1 -2 7 -8 9 -13 6 -9 -5 -49 31 -49 44 0 10 56 -10
67 -25z m-120 4 c4 -8 17 -17 27 -21 14 -5 16 -10 8 -18 -7 -7 -19 -4 -41 11
-17 13 -31 27 -31 32 0 14 28 11 37 -4z m1335 -9 c-7 -7 -12 -8 -12 -2 0 14
12 26 19 19 2 -3 -1 -11 -7 -17z m1002 6 c21 -20 20 -23 -6 -51 -25 -26 -50
-30 -67 -9 -14 17 -1 49 27 65 23 14 28 13 46 -5z m-2503 -24 c17 0 36 -36 25
-47 -9 -9 -66 38 -66 55 0 12 3 13 12 4 7 -7 20 -12 29 -12z m84 -10 c-5 -8
-11 -8 -17 -2 -6 6 -7 16 -3 22 5 8 11 8 17 2 6 -6 7 -16 3 -22z m52 -6 c8
-20 -8 -36 -26 -25 -15 10 -8 41 9 41 6 0 13 -7 17 -16z m108 -4 c0 -7 -6 -15
-12 -17 -8 -3 -13 4 -13 17 0 13 5 20 13 18 6 -3 12 -11 12 -18z m75 10 c0 -5
-5 -10 -11 -10 -5 0 -7 5 -4 10 3 6 8 10 11 10 2 0 4 -4 4 -10z m-1527 -17
c32 -18 30 -18 -141 -21 -94 -1 -250 -1 -345 0 -168 3 -171 3 -142 20 26 15
65 17 313 18 251 0 287 -2 315 -17z m1107 8 c0 -6 -4 -13 -10 -16 -5 -3 -10 1
-10 9 0 9 5 16 10 16 6 0 10 -4 10 -9z m-70 -20 c0 -16 -14 -20 -27 -10 -19
17 -16 28 7 22 11 -3 20 -9 20 -12z m102 -13 c-9 -9 -15 -9 -24 0 -10 10 -10
15 2 22 20 12 38 -6 22 -22z m378 2 c0 -6 -11 -10 -25 -10 -23 0 -34 18 -19
33 9 8 44 -11 44 -23z m73 14 c-4 -14 -43 -9 -43 6 0 5 10 8 23 6 12 -1 21 -7
20 -12z m-3725 -20 c4 -26 -30 -56 -60 -52 -29 4 -35 34 -12 59 23 26 68 22
72 -7z m3413 -7 c-13 -13 -26 -3 -16 12 3 6 11 8 17 5 6 -4 6 -10 -1 -17z
m-101 -3 c0 -8 -4 -12 -10 -9 -5 3 -10 10 -10 16 0 5 5 9 10 9 6 0 10 -7 10
-16z m230 6 c0 -5 -6 -10 -14 -10 -8 0 -18 5 -21 10 -3 6 3 10 14 10 12 0 21
-4 21 -10z m-320 -10 c0 -5 -4 -10 -10 -10 -5 0 -10 5 -10 10 0 6 5 10 10 10
6 0 10 -4 10 -10z m237 -16 c-9 -9 -28 6 -21 18 4 6 10 6 17 -1 6 -6 8 -13 4
-17z m242 10 c15 10 25 -14 11 -27 -9 -9 -15 -7 -26 7 -8 11 -14 16 -14 12 0
-4 -5 -4 -10 -1 -6 4 -8 11 -4 16 4 6 11 6 19 -1 8 -7 19 -9 24 -6z m-1469
-14 c25 -19 24 -20 -410 -20 -434 0 -435 1 -410 20 24 19 43 20 410 20 367 0
386 -1 410 -20z m1120 10 c0 -5 -4 -10 -10 -10 -5 0 -10 5 -10 10 0 6 5 10 10
10 6 0 10 -4 10 -10z m243 -31 c-8 -8 -14 -6 -22 9 -13 25 -2 37 18 17 11 -11
12 -18 4 -26z m-327 18 c14 5 19 -8 7 -20 -8 -9 -33 12 -32 27 0 7 2 7 5 -1 3
-7 12 -9 20 -6z m2345 -13 c25 -31 -24 -69 -68 -53 -27 10 -29 31 -7 53 20 21
58 20 75 0z m-2201 -3 c0 -5 7 -8 16 -7 19 1 42 -29 31 -41 -11 -10 -61 22
-65 41 -2 9 1 16 7 16 6 0 11 -4 11 -9z m110 -6 c0 -8 -7 -15 -15 -15 -8 0
-15 7 -15 15 0 8 7 15 15 15 8 0 15 -7 15 -15z m110 1 c0 -8 -4 -17 -9 -21
-12 -7 -24 12 -16 25 9 15 25 12 25 -4z m1830 -6 c11 -11 20 -24 20 -30 0 -22
-41 -50 -74 -50 -61 0 -88 53 -44 84 31 22 74 20 98 -4z m-1892 -18 c2 -14 -2
-22 -12 -22 -19 0 -29 17 -22 36 8 22 30 12 34 -14z m104 3 c0 -5 -5 -11 -11
-13 -6 -2 -11 4 -11 13 0 9 5 15 11 13 6 -2 11 -8 11 -13z m-1379 -12 c15 -17
-8 -18 -469 -18 -266 0 -484 2 -484 6 0 27 36 29 480 29 422 0 458 -1 473 -17z
m1053 7 c19 -8 24 -14 17 -21 -11 -11 -53 8 -53 23 0 10 3 10 36 -2z m-86 -19
c0 -16 -14 -20 -27 -10 -19 17 -16 28 7 22 11 -3 20 -9 20 -12z m473 4 c4 -8
2 -17 -3 -20 -13 -8 -40 6 -40 21 0 19 36 18 43 -1z m-3989 -1 c24 -9 19 -49
-8 -63 -48 -26 -92 13 -56 49 21 21 37 24 64 14z m3411 -4 c4 -6 11 -8 16 -5
5 4 9 0 9 -8 0 -13 -4 -13 -25 -4 -14 7 -25 15 -25 20 0 11 18 9 25 -3z
m-3557 -16 c27 -19 29 -60 3 -74 -45 -24 -121 -1 -121 36 0 18 49 54 74 54 12
0 32 -7 44 -16z m3798 -11 c-10 -10 -19 5 -10 18 6 11 8 11 12 0 2 -7 1 -15
-2 -18z m109 17 c3 -5 -1 -10 -9 -10 -9 0 -16 5 -16 10 0 6 4 10 9 10 6 0 13
-4 16 -10z m123 -8 c2 -7 -3 -12 -12 -12 -9 0 -16 7 -16 16 0 17 22 14 28 -4z
m-318 -6 c0 -3 -4 -8 -10 -11 -5 -3 -10 -1 -10 4 0 6 5 11 10 11 6 0 10 -2 10
-4z m130 -5 c0 -6 -4 -13 -10 -16 -5 -3 -10 1 -10 9 0 9 5 16 10 16 6 0 10 -4
10 -9z m105 -1 c3 -5 -1 -10 -9 -10 -9 0 -16 5 -16 10 0 6 4 10 9 10 6 0 13
-4 16 -10z m220 0 c-3 -5 -10 -10 -16 -10 -5 0 -9 5 -9 10 0 6 7 10 16 10 8 0
12 -4 9 -10z m-1417 -17 c3 -10 -39 -13 -185 -13 -184 -1 -187 -1 -153 -18 27
-13 74 -18 209 -22 103 -3 176 -9 178 -15 2 -6 -57 -9 -167 -8 -93 1 -170 0
-170 -2 0 -2 21 -13 46 -25 40 -17 67 -20 184 -20 113 0 139 -3 144 -15 6 -17
5 -17 -181 -15 -98 1 -120 4 -167 26 -154 70 -351 70 -510 0 -55 -24 -68 -26
-217 -26 -137 0 -158 2 -153 15 5 12 32 15 157 15 122 0 160 3 194 18 24 9 43
20 43 25 0 4 -81 7 -181 7 -117 0 -178 3 -174 10 4 6 75 10 179 10 152 0 179
3 217 20 l44 20 -197 0 c-181 0 -211 4 -191 23 3 4 240 6 526 5 406 -2 521 -6
525 -15z m1332 1 c0 -9 -5 -14 -12 -12 -18 6 -21 28 -4 28 9 0 16 -7 16 -16z
m125 6 c3 -6 -1 -13 -10 -16 -19 -8 -30 0 -20 15 8 14 22 14 30 1z m-454 -9
c4 7 11 10 15 6 11 -10 -12 -31 -25 -23 -6 4 -11 13 -10 19 0 8 3 7 6 -2 4
-11 7 -11 14 0z m170 -21 c16 0 29 -19 29 -41 0 -5 -7 -9 -15 -9 -8 0 -15 5
-15 10 0 6 -6 10 -13 10 -15 0 -39 35 -30 44 4 4 11 2 17 -4 5 -5 18 -10 27
-10z m84 -10 c-5 -8 -11 -8 -17 -2 -6 6 -7 16 -3 22 5 8 11 8 17 2 6 -6 7 -16
3 -22z m1019 -189 c-6 -7 -204 191 -204 204 0 5 47 -37 105 -95 57 -57 102
-106 99 -109z m-54 144 c35 -36 62 -65 59 -65 -2 0 -34 29 -69 65 -35 36 -62
65 -59 65 2 0 34 -29 69 -65z m45 45 c10 -11 16 -20 13 -20 -3 0 -13 9 -23 20
-10 11 -16 20 -13 20 3 0 13 -9 23 -20z m-957 -18 c2 -13 -2 -22 -10 -22 -20
0 -37 20 -31 37 8 21 38 11 41 -15z m112 7 c0 -5 -7 -9 -15 -9 -8 0 -15 7 -15
15 0 9 6 12 15 9 8 -4 15 -10 15 -15z m-350 1 c0 -5 -4 -10 -10 -10 -5 0 -10
5 -10 10 0 6 5 10 10 10 6 0 10 -4 10 -10z m-70 -21 c0 -15 -22 -21 -31 -8
-14 22 -11 28 11 22 11 -3 20 -9 20 -14z m103 6 c8 -18 -11 -31 -25 -17 -11
11 -3 32 12 32 4 0 10 -7 13 -15z m-207 -10 c4 -8 10 -12 15 -9 5 3 9 0 9 -5
0 -14 -6 -14 -31 -1 -20 11 -26 30 -9 30 6 0 13 -7 16 -15z m582 -3 c3 -9 -3
-13 -19 -10 -12 1 -24 9 -27 16 -3 9 3 13 19 10 12 -1 24 -9 27 -16z m-242
-19 c-10 -10 -19 5 -10 18 6 11 8 11 12 0 2 -7 1 -15 -2 -18z m-216 7 c0 -5
-5 -10 -11 -10 -5 0 -7 5 -4 10 3 6 8 10 11 10 2 0 4 -4 4 -10z m120 0 c0 -5
-4 -10 -10 -10 -5 0 -10 5 -10 10 0 6 5 10 10 10 6 0 10 -4 10 -10z m225 1
c10 -17 -12 -21 -25 -6 -10 12 -10 15 3 15 9 0 18 -4 22 -9z m-185 -21 c0 -5
-4 -10 -10 -10 -5 0 -10 5 -10 10 0 6 5 10 10 10 6 0 10 -4 10 -10z m110 0 c0
-5 -7 -10 -15 -10 -8 0 -15 5 -15 10 0 6 7 10 15 10 8 0 15 -4 15 -10z m2663
-5 c19 -19 11 -52 -15 -60 -37 -12 -64 35 -36 63 16 16 33 15 51 -3z m-4309
-10 c72 -15 189 -57 213 -77 7 -5 43 -9 80 -8 136 4 173 1 173 -15 0 -13 -19
-15 -122 -13 -115 2 -128 4 -193 34 -194 88 -437 87 -639 -5 -63 -28 -72 -30
-196 -29 -103 0 -130 3 -130 14 0 11 26 14 127 14 124 0 130 1 210 36 46 19
111 41 146 49 84 18 242 18 331 0z m1452 2 c14 5 20 -12 6 -21 -10 -6 -43 20
-35 28 4 4 9 3 11 -3 2 -5 10 -7 18 -4z m324 3 c0 -5 -7 -10 -15 -10 -8 0 -15
5 -15 10 0 6 7 10 15 10 8 0 15 -4 15 -10z m770 -114 c0 -6 -27 16 -60 49 -33
33 -60 64 -60 69 0 6 27 -16 60 -49 33 -33 60 -64 60 -69z m1864 101 c36 -26
-4 -84 -41 -61 -24 15 -27 38 -8 58 20 19 26 20 49 3z m-2814 -7 c0 -5 6 -7
13 -4 18 7 41 -22 33 -41 -5 -14 -11 -12 -41 11 -37 28 -44 44 -20 44 8 0 15
-4 15 -10z m110 0 c0 -5 -4 -10 -10 -10 -5 0 -10 5 -10 10 0 6 5 10 10 10 6 0
10 -4 10 -10z m-3575 -6 c8 -4 23 -20 31 -36 42 -81 -58 -157 -121 -93 -64 63
4 161 90 129z m3615 -28 c-13 -13 -35 7 -25 24 5 8 11 8 21 -1 10 -8 12 -15 4
-23z m111 11 c-1 -12 -15 -9 -19 4 -3 6 1 10 8 8 6 -3 11 -8 11 -12z m-341 -7
c0 -5 -4 -10 -10 -10 -5 0 -10 5 -10 10 0 6 5 10 10 10 6 0 10 -4 10 -10z
m-157 -23 c4 3 7 1 7 -6 0 -8 -6 -11 -16 -7 -9 3 -20 6 -25 6 -5 0 -9 7 -9 17
0 15 1 15 18 0 10 -10 22 -14 25 -10z m80 -3 c-4 -11 -9 -12 -19 -3 -20 16
-17 28 5 22 12 -3 17 -11 14 -19z m112 16 c3 -6 -1 -13 -10 -16 -19 -8 -30 0
-20 15 8 14 22 14 30 1z m364 -4 c9 -10 9 -16 1 -21 -16 -10 -40 2 -40 20 0
19 24 20 39 1z m2311 -5 c20 -38 -13 -71 -51 -51 -21 12 -25 40 -7 58 18 18
46 14 58 -7z m-4169 -20 c41 -11 104 -31 139 -46 35 -15 79 -26 99 -25 20 1
71 2 114 1 61 -1 77 -4 77 -16 0 -24 -228 -21 -278 4 -204 102 -503 105 -725
6 -52 -23 -70 -25 -187 -25 -109 0 -130 2 -130 15 0 13 21 15 129 15 113 0
135 3 182 24 67 29 153 54 227 66 84 13 265 4 353 -19z m1409 9 c0 -5 -5 -10
-11 -10 -5 0 -7 5 -4 10 3 6 8 10 11 10 2 0 4 -4 4 -10z m220 -6 c0 -8 -4 -12
-10 -9 -5 3 -10 10 -10 16 0 5 5 9 10 9 6 0 10 -7 10 -16z m-100 -4 c0 -5 -4
-10 -10 -10 -5 0 -10 5 -10 10 0 6 5 10 10 10 6 0 10 -4 10 -10z m865 -10 c10
-11 16 -20 13 -20 -3 0 -13 9 -23 20 -10 11 -16 20 -13 20 3 0 13 -9 23 -20z
m-825 -11 c0 -5 -4 -9 -10 -9 -5 0 -10 7 -10 16 0 8 5 12 10 9 6 -3 10 -10 10
-16z m101 8 c-1 -12 -15 -9 -19 4 -3 6 1 10 8 8 6 -3 11 -8 11 -12z m-185 -10
c16 6 19 -12 4 -22 -12 -8 -42 20 -32 29 4 4 8 3 10 -3 2 -5 10 -7 18 -4z
m2929 -3 c19 -20 16 -43 -7 -58 -38 -23 -78 35 -42 61 23 17 29 16 49 -3z
m-2791 -25 c-3 -5 -10 -7 -15 -3 -5 3 -7 10 -3 15 3 5 10 7 15 3 5 -3 7 -10 3
-15z m-1094 1 c0 -5 -7 -10 -15 -10 -8 0 -15 5 -15 10 0 6 7 10 15 10 8 0 15
-4 15 -10z m1210 0 c0 -5 -4 -10 -9 -10 -6 0 -13 5 -16 10 -3 6 1 10 9 10 9 0
16 -4 16 -10z m-1762 -16 c42 -8 116 -31 163 -50 79 -31 95 -34 193 -34 83 0
106 -3 106 -14 0 -11 -23 -14 -103 -15 -95 -2 -109 1 -176 29 -238 102 -492
105 -735 9 -94 -37 -103 -39 -212 -39 -95 0 -114 3 -114 15 0 13 21 15 128 15
70 0 132 4 137 9 16 15 155 62 225 76 93 19 294 18 388 -1z m1687 7 c7 -12
-12 -24 -25 -16 -11 7 -4 25 10 25 5 0 11 -4 15 -9z m113 -8 c-4 -22 -22 -20
-26 1 -2 10 3 16 13 16 10 0 15 -7 13 -17z m-234 -14 c-3 -5 -10 -7 -15 -3 -5
3 -7 10 -3 15 3 5 10 7 15 3 5 -3 7 -10 3 -15z m-77 -2 c11 4 14 2 11 -8 -7
-21 -32 -17 -35 6 -2 11 0 15 3 8 3 -7 12 -9 21 -6z m113 -13 c0 -16 -16 -19
-25 -4 -8 13 4 32 16 25 5 -4 9 -13 9 -21z m2584 13 c36 -26 -4 -84 -41 -61
-24 15 -27 38 -8 58 20 19 26 20 49 3z m-2780 -12 c11 -8 16 -18 11 -22 -4 -5
-10 -2 -12 5 -3 6 -11 12 -19 12 -8 0 -14 5 -14 10 0 14 11 12 34 -5z m116
-15 c0 -5 -5 -10 -11 -10 -5 0 -7 5 -4 10 3 6 8 10 11 10 2 0 4 -4 4 -10z
m120 0 c0 -5 -4 -10 -10 -10 -5 0 -10 5 -10 10 0 6 5 10 10 10 6 0 10 -4 10
-10z m2750 -15 c26 -32 -13 -81 -47 -59 -35 22 -23 74 17 74 10 0 23 -7 30
-15z m-2710 -5 c0 -5 -4 -10 -10 -10 -5 0 -10 5 -10 10 0 6 5 10 10 10 6 0 10
-4 10 -10z m-1699 -16 c46 -9 125 -31 175 -50 83 -31 102 -34 198 -34 88 0
106 -3 106 -15 0 -12 -19 -15 -109 -15 -99 0 -114 3 -175 30 -113 52 -223 73
-371 73 -149 0 -234 -16 -366 -68 -81 -33 -93 -35 -203 -35 -94 0 -116 3 -116
14 0 12 25 16 133 18 119 4 138 7 197 32 141 62 360 83 531 50z m1615 3 c16 6
19 -12 4 -22 -12 -8 -42 20 -32 29 4 4 8 3 10 -3 2 -5 10 -7 18 -4z m2679 -13
c19 -20 16 -43 -7 -58 -35 -22 -74 27 -48 59 16 19 35 19 55 -1z m-2540 -4 c3
-5 12 -7 19 -4 19 7 31 -15 16 -29 -9 -9 -14 -8 -24 6 -7 9 -18 17 -25 17 -6
0 -11 5 -11 10 0 13 17 13 25 0z m1737 -25 c0 -5 -5 -11 -11 -13 -6 -2 -11 4
-11 13 0 9 5 15 11 13 6 -2 11 -8 11 -13z m-1969 -28 c4 3 7 1 7 -5 0 -6 -4
-14 -10 -17 -5 -3 -10 -1 -10 4 0 6 -9 11 -20 11 -20 0 -26 11 -13 23 3 4 14
0 23 -8 9 -8 20 -12 23 -8z m80 -3 c-6 -17 -11 -18 -28 0 -17 17 -10 25 15 19
11 -3 16 -11 13 -19z m19 -16 c-7 -7 -12 -8 -12 -2 0 14 12 26 19 19 2 -3 -1
-11 -7 -17z m-1567 -46 c39 -10 99 -31 134 -46 56 -23 78 -26 173 -26 65 0
108 -4 108 -10 0 -6 -45 -10 -114 -10 -100 0 -120 3 -168 25 -114 52 -201 69
-363 69 -163 1 -247 -15 -368 -68 -52 -23 -70 -26 -182 -26 -77 0 -125 4 -125
10 0 6 48 10 125 10 103 0 133 3 163 19 53 26 133 51 215 67 100 19 310 12
402 -14z m1658 12 c-2 -13 -23 -17 -23 -4 0 6 -4 8 -10 5 -5 -3 -10 -1 -10 4
0 6 10 9 23 7 12 -1 21 -7 20 -12z m-973 -19 c0 -8 -4 -15 -9 -15 -13 0 -22
16 -14 24 11 11 23 6 23 -9z m421 -38 c-1 -12 -15 -9 -19 4 -3 6 1 10 8 8 6
-3 11 -8 11 -12z m459 -19 c0 -4 -4 -8 -10 -8 -5 0 -10 5 -10 10 0 6 -3 9 -7
9 -20 -3 -34 2 -28 11 7 11 55 -8 55 -22z m860 -13 c0 -8 -4 -15 -10 -15 -5 0
-10 7 -10 15 0 8 5 15 10 15 6 0 10 -7 10 -15z m-2450 -31 c36 -9 89 -27 119
-40 46 -21 69 -24 172 -24 73 0 119 -4 119 -10 0 -6 -44 -10 -112 -10 -102 0
-121 3 -190 30 -207 81 -439 80 -633 -1 -65 -27 -79 -29 -197 -29 -173 0 -166
18 10 23 125 3 145 6 224 35 48 18 113 37 145 42 81 13 266 4 343 -16z m10
-149 c64 -25 94 -30 210 -35 l135 -6 -143 -4 c-78 -3 -142 -2 -142 2 0 4 -37
19 -82 34 -137 45 -340 35 -450 -22 -20 -11 -64 -14 -180 -12 l-153 2 150 5
c90 4 159 11 171 18 63 36 158 53 284 50 109 -3 135 -7 200 -32z m1380 -11 c0
-8 -4 -12 -10 -9 -5 3 -10 10 -10 16 0 5 5 9 10 9 6 0 10 -7 10 -16z m-1511
-109 c29 -10 89 -14 213 -14 94 -1 173 -3 176 -6 13 -12 -361 -7 -395 6 -35
13 -124 11 -169 -3 -28 -10 -91 -12 -229 -8 l-190 6 191 2 c142 1 200 6 225
17 44 19 125 19 178 0z m266 -125 c-4 -6 -137 -10 -365 -10 -228 0 -361 4
-365 10 -4 7 120 10 365 10 245 0 369 -3 365 -10z m445 -60 c0 -5 -7 -10 -15
-10 -8 0 -15 5 -15 10 0 6 7 10 15 10 8 0 15 -4 15 -10z m-1665 -30 c4 -6 1
-17 -5 -26 -15 -18 -42 0 -33 22 6 16 29 19 38 4z m888 -17 c-18 -2 -48 -2
-65 0 -18 2 -4 4 32 4 36 0 50 -2 33 -4z m-843 -28 c17 -20 5 -45 -20 -45 -11
0 -23 7 -26 15 -6 15 11 45 26 45 4 0 13 -7 20 -15z m1770 -45 c0 -5 -7 -10
-15 -10 -8 0 -15 5 -15 10 0 6 7 10 15 10 8 0 15 -4 15 -10z m-1712 -37 c5
-17 -26 -29 -40 -15 -6 6 -7 15 -3 22 9 14 37 9 43 -7z m1350 6 c-2 -6 -8 -10
-13 -10 -5 0 -11 4 -13 10 -2 6 4 11 13 11 9 0 15 -5 13 -11z m-1066 -34 c0
-5 -5 -11 -11 -13 -6 -2 -11 4 -11 13 0 9 5 15 11 13 6 -2 11 -8 11 -13z
m-245 -31 c8 -21 -13 -42 -28 -27 -13 13 -5 43 11 43 6 0 13 -7 17 -16z m1424
-47 c-1 -12 -15 -9 -19 4 -3 6 1 10 8 8 6 -3 11 -8 11 -12z m1154 -2 c-62 -17
-69 -17 -30 0 17 8 41 14 55 14 15 0 5 -6 -25 -14z m160 5 c13 -6 2 -7 -30 -3
-27 3 -52 7 -54 9 -9 8 65 2 84 -6z m-1545 -10 c0 -5 -4 -10 -10 -10 -5 0 -10
5 -10 10 0 6 5 10 10 10 6 0 10 -4 10 -10z m-740 -18 c0 -13 -12 -22 -22 -16
-10 6 -1 24 13 24 5 0 9 -4 9 -8z m2393 -32 c51 -46 91 -104 84 -123 -4 -8 -6
-6 -6 4 -1 26 -58 96 -103 129 -22 16 -36 30 -31 30 6 0 31 -18 56 -40z
m-2785 -7 c-2 -10 -10 -18 -18 -18 -8 0 -16 8 -18 18 -2 12 3 17 18 17 15 0
20 -5 18 -17z m2555 -10 c-7 -2 -21 -2 -30 0 -10 3 -4 5 12 5 17 0 24 -2 18
-5z m132 -12 c41 -19 115 -86 115 -104 0 -6 -16 8 -36 31 -39 47 -74 68 -131
81 -28 7 -31 9 -13 10 14 0 43 -8 65 -18z m-2656 -20 c8 -5 12 -18 8 -30 -3
-12 -1 -21 4 -21 5 0 9 -9 9 -20 0 -13 -7 -20 -20 -20 -13 0 -20 7 -20 19 0
10 -7 21 -15 25 -18 7 -19 28 -3 44 14 14 19 15 37 3z m1551 -31 c11 -7 3 -10
-28 -10 -26 0 -41 4 -37 10 8 13 45 13 65 0z m90 0 c11 -7 3 -10 -30 -10 -33
0 -41 3 -30 10 8 5 22 10 30 10 8 0 22 -5 30 -10z m48 -37 c3 -10 -26 -13
-122 -13 -120 0 -138 4 -117 26 15 14 233 2 239 -13z m855 9 c-10 -10 -21 -14
-24 -9 -10 15 -51 -3 -83 -37 -21 -23 -26 -25 -17 -8 15 28 52 52 94 62 48 12
48 11 30 -8z m94 -12 c17 -10 37 -29 43 -42 11 -22 11 -22 -5 -3 -14 17 -17
18 -25 5 -8 -12 -10 -10 -10 8 0 16 -9 27 -32 37 -18 8 -26 14 -18 15 8 0 29
-9 47 -20z m-3557 -131 c63 -66 112 -119 109 -119 -2 0 -58 54 -124 120 -66
66 -115 119 -110 119 6 -1 62 -55 125 -120z m2700 100 c0 -5 -7 -9 -15 -9 -15
0 -20 12 -9 23 8 8 24 -1 24 -14z m-90 -4 c0 -13 -21 -15 -130 -15 -109 0
-130 2 -130 15 0 13 21 15 130 15 109 0 130 -2 130 -15z m-1645 -25 c0 -18 -6
-26 -21 -28 -26 -4 -40 24 -23 45 18 21 44 11 44 -17z m2222 -62 c-2 -18 -4
-4 -4 32 0 36 2 50 4 33 2 -18 2 -48 0 -65z m522 52 c0 -10 -3 -8 -9 5 -12 27
-12 43 0 25 5 -8 9 -22 9 -30z m-283 4 c-4 -9 -9 -15 -11 -12 -3 3 -3 13 1 22
4 9 9 15 11 12 3 -3 3 -13 -1 -22z m-1406 6 c0 -5 -4 -10 -10 -10 -5 0 -10 5
-10 10 0 6 5 10 10 10 6 0 10 -4 10 -10z m1496 -6 c10 -8 12 -12 4 -8 -8 4
-30 11 -50 15 -35 7 -35 7 -4 8 16 0 39 -6 50 -15z m-912 -9 c-4 -11 -22 -15
-60 -16 -30 0 -78 -1 -108 -1 -30 0 -59 3 -65 6 -31 19 -1 26 114 26 106 0
124 -2 119 -15z m946 -34 c-13 -49 -18 -52 -16 -11 1 16 4 30 9 30 4 0 7 8 7
17 0 9 3 14 6 11 3 -3 0 -24 -6 -47z m-4331 -26 c0 -14 -4 -10 -14 14 -8 18
-15 38 -15 45 1 19 29 -38 29 -59z m2521 50 c0 -8 -4 -15 -10 -15 -5 0 -10 7
-10 15 0 8 5 15 10 15 6 0 10 -7 10 -15z m2037 -17 c-3 -7 -5 -2 -5 12 0 14 2
19 5 13 2 -7 2 -19 0 -25z m-4510 -25 c8 -21 25 -60 38 -88 13 -27 30 -67 39
-88 9 -21 19 -36 23 -34 5 3 9 -7 9 -21 1 -15 16 -58 34 -97 66 -142 120 -265
120 -271 0 -31 -89 119 -90 152 -1 13 -33 50 -48 55 -13 4 -115 249 -108 257
3 2 -9 35 -25 72 -16 38 -29 76 -29 84 0 29 21 16 37 -21z m58 -10 c9 -20 14
-41 12 -47 -4 -11 -37 57 -37 75 0 19 10 7 25 -28z m3129 25 c-15 -7 -28 -7
-40 1 -16 9 -12 10 21 10 35 0 37 -2 19 -11z m101 3 c-18 -7 -55 -4 -55 5 0 2
17 4 38 3 28 0 32 -2 17 -8z m-1565 -36 c0 -19 -20 -29 -32 -17 -15 15 -2 43
17 36 8 -3 15 -12 15 -19z m2434 -12 c11 -13 16 -23 13 -23 -10 0 -37 31 -37
42 0 6 1 9 3 7 1 -2 11 -14 21 -26z m-3986 -10 c5 -16 13 -36 17 -45 4 -10 3
-18 -3 -18 -6 0 -15 12 -20 28 -5 15 -13 35 -17 45 -4 9 -3 17 3 17 6 0 15
-12 20 -27z m3799 5 c-3 -8 -6 -5 -6 6 -1 11 2 17 5 13 3 -3 4 -12 1 -19z
m369 -27 c-9 -17 -26 -36 -39 -42 -19 -10 -18 -8 5 14 15 14 30 38 34 54 4 15
9 23 11 16 2 -6 -3 -25 -11 -42z m94 2 c-11 -17 -11 -17 -6 0 3 10 7 26 7 35
1 15 2 15 6 0 2 -10 -1 -25 -7 -35z m60 3 c-6 -19 -17 -40 -25 -46 -8 -7 -6 3
6 27 10 20 19 44 19 52 0 8 3 12 6 8 3 -3 1 -21 -6 -41z m-3830 -11 c24 -24
42 -47 39 -50 -3 -2 -27 18 -54 45 -27 28 -45 50 -39 50 5 0 30 -20 54 -45z
m3280 0 c0 -5 -5 -3 -10 5 -5 8 -10 20 -10 25 0 6 5 3 10 -5 5 -8 10 -19 10
-25z m320 31 c0 -2 -7 -7 -16 -10 -8 -3 -12 -2 -9 4 6 10 25 14 25 6z m-231
-101 l26 -30 -28 25 c-28 24 -57 70 -57 87 1 4 8 -5 17 -22 8 -16 27 -43 42
-60z m184 78 c-7 -2 -19 -2 -25 0 -7 3 -2 5 12 5 14 0 19 -2 13 -5z m-2475
-30 c5 -17 -26 -29 -40 -15 -6 6 -7 15 -3 22 9 14 37 9 43 -7z m2302 -101 c0
-8 -58 45 -75 68 -10 14 3 5 28 -20 26 -24 47 -46 47 -48z m370 85 c0 -2 -17
-19 -37 -38 l-38 -34 34 38 c33 34 41 42 41 34z m-167 -24 c-7 -2 -19 -2 -25
0 -7 3 -2 5 12 5 14 0 19 -2 13 -5z m191 -15 c-22 -25 -103 -78 -118 -78 -6 0
12 13 39 29 28 16 59 38 69 50 11 11 21 21 24 21 3 0 -3 -10 -14 -22z m-4225
-19 c11 -33 14 -56 6 -48 -12 13 -34 79 -26 79 5 0 14 -14 20 -31z m2191 21
c0 -5 -4 -10 -10 -10 -5 0 -10 5 -10 10 0 6 5 10 10 10 6 0 10 -4 10 -10z
m-1675 -140 c66 -66 117 -120 115 -120 -3 0 -59 54 -125 120 -66 66 -117 120
-115 120 3 0 59 -54 125 -120z m3575 90 c-8 -5 -22 -9 -30 -9 -10 0 -8 3 5 9
27 12 43 12 25 0z m-2550 -20 c0 -13 -7 -20 -20 -20 -19 0 -27 20 -13 33 13
14 33 6 33 -13z m1130 -25 c0 -8 -4 -15 -9 -15 -13 0 -22 16 -14 24 11 11 23
6 23 -9z m1417 9 c-3 -3 -12 -4 -19 -1 -8 3 -5 6 6 6 11 1 17 -2 13 -5z
m-4048 -56 c14 -39 5 -51 -9 -13 -6 15 -13 32 -16 36 -3 5 -1 9 4 9 6 0 15
-14 21 -32z m1506 -16 c1 -55 -8 -70 -29 -53 -9 7 -13 17 -10 22 3 5 0 18 -6
29 -14 25 4 53 29 48 12 -2 16 -15 16 -46z m-1096 -47 c24 -25 42 -47 39 -50
-2 -2 -26 18 -53 45 -27 28 -45 50 -39 50 5 0 29 -20 53 -45z m-370 -55 c5
-16 7 -30 3 -30 -4 0 -13 14 -19 30 -6 17 -8 30 -3 30 4 0 13 -13 19 -30z
m1466 0 c0 -18 -6 -26 -22 -28 -26 -4 -43 35 -22 49 24 15 44 5 44 -21z m-15
-91 c0 -25 -33 -22 -38 4 -2 12 3 17 17 17 15 0 21 -6 21 -21z m-1410 -39 c0
-13 -1 -13 -10 0 -5 8 -10 22 -10 30 0 13 1 13 10 0 5 -8 10 -22 10 -30z
m1397 -26 c8 -21 -13 -42 -28 -27 -13 13 -5 43 11 43 6 0 13 -7 17 -16z
m-1357 -87 c0 -16 -18 3 -23 25 -6 22 -5 22 8 4 8 -11 15 -24 15 -29z m-264
-44 c-6 -15 -8 -15 -16 -3 -6 9 -6 16 0 18 6 2 7 9 4 15 -5 9 -4 9 6 0 7 -7
10 -19 6 -30z m1589 7 c0 -8 -8 -16 -17 -18 -13 -2 -18 3 -18 18 0 15 5 20 18
18 9 -2 17 -10 17 -18z m1475 -5 c0 -8 -4 -15 -10 -15 -5 0 -10 7 -10 15 0 8
5 15 10 15 6 0 10 -7 10 -15z m-1492 -59 c3 -11 -2 -24 -10 -30 -15 -11 -18
-17 -18 -36 0 -13 -27 -13 -35 0 -4 6 -1 17 5 25 6 8 9 18 6 24 -3 5 -3 17 0
26 9 22 48 15 52 -9z m-768 -1 c23 -28 -9 -72 -45 -59 -36 14 -24 74 15 74 10
0 23 -7 30 -15z m2380 0 c0 -8 -4 -15 -10 -15 -5 0 -10 7 -10 15 0 8 5 15 10
15 6 0 10 -7 10 -15z m-2280 -20 c26 -31 -13 -82 -44 -56 -19 16 -21 57 -3 64
22 9 34 7 47 -8z m-1171 -46 c23 -56 25 -69 13 -69 -14 0 -32 48 -25 67 4 11
3 14 -5 9 -7 -4 -12 -3 -12 3 0 5 -3 16 -6 25 -3 9 -2 16 4 16 5 0 19 -23 31
-51z m986 -10 c4 -11 1 -26 -5 -34 -27 -32 -78 -5 -65 34 11 35 59 34 70 0z
m815 -27 c0 -20 -27 -43 -43 -36 -20 7 -23 50 -4 57 14 5 47 -10 47 -21z
m-566 -24 c13 -21 -2 -51 -26 -56 -16 -3 -48 23 -48 38 0 15 32 41 48 38 8 -2
20 -11 26 -20z m-250 -60 c8 -13 8 -23 0 -35 -15 -24 -44 -23 -61 3 -12 19
-12 24 3 38 20 20 43 18 58 -6z m764 5 c5 -17 -26 -29 -40 -15 -6 6 -7 15 -3
22 9 14 37 9 43 -7z m-1644 -63 l7 -25 -14 25 c-8 14 -17 36 -21 50 l-7 25 14
-25 c8 -14 17 -36 21 -50z m1084 8 c5 -39 -30 -56 -58 -28 -28 28 -11 63 28
58 21 -2 28 -9 30 -30z m511 -24 c-15 -18 -28 -18 -36 2 -8 20 17 36 34 22 10
-8 10 -14 2 -24z m-631 14 c19 -19 14 -46 -9 -59 -18 -9 -25 -7 -41 9 -16 16
-18 23 -9 41 13 23 40 28 59 9z m-944 -44 c3 -8 2 -12 -4 -9 -6 3 -10 10 -10
16 0 14 7 11 14 -7z m1504 -57 c2 -12 -3 -17 -17 -17 -12 0 -21 6 -21 13 0 31
32 34 38 4z m4592 -57 c0 -8 -14 -27 -32 -42 l-33 -26 33 -19 c37 -21 41 -47
10 -64 -44 -23 -44 -43 -2 -59 34 -13 31 -46 -6 -65 -16 -9 -30 -20 -30 -25 0
-5 14 -16 30 -25 41 -21 38 -48 -6 -74 -22 -13 -34 -16 -32 -9 3 7 17 19 31
26 34 17 34 28 0 44 -40 19 -42 53 -4 73 38 19 39 26 1 47 -39 22 -39 53 0 73
37 19 37 26 0 47 -39 22 -38 49 2 72 30 18 30 20 12 32 -32 22 -44 34 -44 44
0 15 69 -34 70 -50z m-4630 6 c0 -29 -28 -42 -48 -22 -20 20 -8 46 23 46 20 0
25 -5 25 -24z m4324 -356 c14 -5 32 -21 42 -35 14 -21 14 -30 4 -54 -21 -51
-93 -62 -121 -19 -4 6 -23 1 -46 -10 -36 -19 -39 -24 -35 -52 3 -22 13 -35 35
-47 28 -14 33 -14 58 1 38 22 66 20 94 -9 30 -30 31 -54 4 -89 -40 -50 -116
-26 -123 39 -2 18 -14 34 -35 48 -31 19 -34 19 -61 4 -15 -10 -38 -17 -49 -17
-55 0 -84 93 -39 124 29 20 72 20 92 0 14 -14 20 -13 56 7 21 12 37 26 34 31
-14 22 22 72 63 87 1 1 13 -3 27 -9z m-5220 -39 c3 -4 -8 -7 -25 -5 -27 3 -30
2 -19 -12 7 -8 16 -11 19 -6 8 13 45 11 53 -2 25 -37 -2 -88 -52 -101 -61 -15
-105 70 -60 115 20 20 74 27 84 11z m4356 -187 c0 -14 -7 -15 -37 -10 -21 3
-46 6 -55 6 -10 0 -18 5 -18 10 0 6 25 10 55 10 44 0 55 -3 55 -16z m-530 -79
c-49 -26 -70 -31 -70 -15 0 13 58 38 90 39 21 0 18 -4 -20 -24z m378 -109 c22
-30 28 -46 20 -49 -11 -3 -68 71 -68 88 0 16 21 -1 48 -39z m-221 -39 c-7 -27
-17 -48 -22 -47 -13 2 -9 32 11 78 21 48 27 31 11 -31z m643 -252 c0 -7 -72
-36 -78 -31 -2 3 11 12 29 20 37 16 49 19 49 11z m1480 -30 c0 -8 -4 -15 -10
-15 -5 0 -10 7 -10 15 0 8 5 15 10 15 6 0 10 -7 10 -15z m-796 -272 c20 -120
36 -226 36 -235 0 -32 -29 -20 -35 15 -44 249 -72 423 -68 430 2 4 10 7 17 7
9 0 24 -68 50 -217z m-966 135 c6 -16 8 -28 3 -28 -5 0 -11 8 -14 18 -2 9 -8
26 -12 37 -12 30 9 6 23 -27z m2212 -13 c-7 -9 -15 -13 -19 -10 -3 3 1 10 9
15 21 14 24 12 10 -5z m-1985 -98 c8 -20 13 -37 10 -37 -6 0 -35 64 -35 76 0
13 9 -1 25 -39z m-216 -167 c5 -17 6 -28 2 -25 -5 3 -14 19 -20 35 -5 17 -6
28 -2 25 5 -3 14 -19 20 -35z m-230 -25 c-9 -9 -79 -35 -79 -30 0 3 15 12 33
20 32 14 55 19 46 10z m-4574 -255 c26 -41 35 -70 12 -35 -35 51 -49 75 -43
75 3 0 17 -18 31 -40z m5825 0 c0 -5 -7 -10 -15 -10 -8 0 -15 5 -15 10 0 6 7
10 15 10 8 0 15 -4 15 -10z m-1325 -87 c8 -20 13 -38 11 -41 -4 -3 -36 63 -36
74 0 14 12 -2 25 -33z m470 -91 c-17 -14 -65 -32 -65 -24 0 5 12 13 28 19 34
14 49 16 37 5z m1495 -68 c0 -8 -3 -14 -7 -14 -5 0 -73 -11 -153 -25 -170 -29
-190 -30 -190 -10 0 8 6 15 13 16 6 0 82 13 167 28 85 15 158 25 163 23 4 -2
7 -10 7 -18z m-260 -145 c0 -5 -7 -9 -15 -9 -15 0 -20 12 -9 23 8 8 24 -1 24
-14z m-1720 -54 c-14 -8 -32 -14 -40 -14 -8 0 -1 7 15 14 39 18 57 18 25 0z
m1565 -65 c10 -11 16 -20 13 -20 -3 0 -13 9 -23 20 -10 11 -16 20 -13 20 3 0
13 -9 23 -20z m-1817 -52 c16 -44 9 -45 -11 -3 -9 19 -13 35 -9 35 4 0 13 -14
20 -32z m732 3 c-8 -5 -26 -12 -40 -15 l-25 -7 25 15 c14 9 32 15 40 15 13 0
13 -1 0 -8z m1170 -46 c13 -14 21 -25 18 -25 -2 0 -15 11 -28 25 -13 14 -21
25 -18 25 2 0 15 -11 28 -25z m-6190 -19 c0 -3 -15 -14 -32 -26 l-33 -22 30
26 c31 27 35 29 35 22z m6270 -71 c13 -14 21 -25 18 -25 -2 0 -15 11 -28 25
-13 14 -21 25 -18 25 2 0 15 -11 28 -25z m80 -90 c13 -14 21 -25 18 -25 -2 0
-15 11 -28 25 -13 14 -21 25 -18 25 2 0 15 -11 28 -25z m-6115 -160 c30 -47
55 -88 55 -92 0 -4 -19 21 -43 57 -72 107 -80 120 -73 120 4 0 31 -38 61 -85z
m3544 -34 c-6 -18 -14 -30 -17 -27 -2 3 1 19 8 36 16 40 23 33 9 -9z m-3809
-55 c0 -12 -14 5 -31 39 -8 16 -6 15 10 -4 12 -13 21 -28 21 -35z"/>
<path d="M3594 12285 c-21 -31 -15 -53 19 -79 26 -19 30 -19 55 -5 54 30 32
109 -29 109 -19 0 -34 -8 -45 -25z"/>
<path d="M7125 11370 c3 -5 8 -10 11 -10 2 0 4 5 4 10 0 6 -5 10 -11 10 -5 0
-7 -4 -4 -10z"/>
<path d="M6970 10930 c0 -5 5 -10 10 -10 6 0 10 5 10 10 0 6 -4 10 -10 10 -5
0 -10 -4 -10 -10z"/>
<path d="M5767 11087 c-22 -15 -13 -47 13 -47 23 0 34 30 17 47 -10 11 -16 11
-30 0z"/>
<path d="M5864 11055 c-4 -9 -2 -21 4 -27 15 -15 44 -1 40 19 -4 23 -36 29
-44 8z"/>
<path d="M5670 11014 c-11 -12 -10 -18 3 -32 16 -15 18 -15 34 0 13 14 14 20
3 32 -7 9 -16 16 -20 16 -4 0 -13 -7 -20 -16z"/>
<path d="M5917 10957 c-8 -21 8 -39 29 -35 27 5 25 42 -2 46 -12 2 -24 -3 -27
-11z"/>
<path d="M5674 10895 c-4 -9 -2 -21 4 -27 15 -15 44 -1 40 19 -4 23 -36 29
-44 8z"/>
<path d="M5882 10871 c-19 -11 -11 -45 11 -49 9 -2 20 4 23 13 9 21 -16 47
-34 36z"/>
<path d="M5765 10834 c-15 -15 -15 -19 -1 -32 17 -17 46 -10 46 11 0 8 -6 20
-14 26 -11 9 -18 8 -31 -5z"/>
<path d="M4581 10560 c11 -29 13 -30 67 -29 l57 1 -60 28 c-33 16 -63 29 -67
30 -4 0 -2 -13 3 -30z"/>
<path d="M4526 10506 c-15 -43 -29 -83 -32 -90 -3 -8 9 -31 27 -51 l33 -37 12
33 c18 48 18 47 -28 43 l-43 -4 43 11 42 10 0 63 c0 36 -6 70 -13 80 -12 17
-16 11 -41 -58z"/>
<path d="M4597 10513 c-2 -5 -3 -26 -3 -48 l1 -40 48 -3 47 -3 0 50 0 51 -44
0 c-25 0 -47 -3 -49 -7z"/>
<path d="M4700 10471 c0 -31 5 -53 15 -61 23 -19 28 -6 20 55 -4 38 -11 55
-21 55 -10 0 -14 -13 -14 -49z"/>
<path d="M4581 10374 c-7 -19 -11 -37 -9 -40 3 -2 40 8 83 23 71 23 76 27 60
39 -10 8 -42 14 -70 14 -49 0 -51 -1 -64 -36z"/>
<path d="M1907 8781 c-43 -14 -75 -30 -71 -34 4 -4 35 -7 69 -7 65 0 61 -3 93
63 5 11 -5 8 -91 -22z"/>
<path d="M1988 8759 c-10 -17 -18 -51 -18 -79 0 -45 2 -49 32 -59 17 -6 32
-10 33 -9 4 7 -19 178 -24 178 -3 0 -14 -14 -23 -31z"/>
<path d="M1791 8718 c-32 -87 -35 -98 -24 -109 11 -11 113 -61 113 -55 0 2 -5
17 -11 34 -10 30 -13 31 -57 27 l-47 -5 40 10 c48 13 54 22 48 69 -7 53 -46
71 -62 29z"/>
<path d="M1870 8680 l0 -50 45 0 45 0 0 50 0 50 -45 0 -45 0 0 -50z"/>
<path d="M1870 8616 c0 -1 5 -17 11 -35 12 -35 15 -35 97 1 40 18 44 22 27 29
-20 7 -135 12 -135 5z"/>
<path d="M2202 8433 c28 -29 38 -33 83 -33 39 0 53 4 63 20 10 17 10 20 -5 21
-10 0 -53 6 -96 13 l-78 13 33 -34z"/>
<path d="M2163 8435 c4 -11 14 -51 23 -88 19 -79 38 -84 42 -11 2 53 1 57 -42
94 -26 22 -28 23 -23 5z"/>
<path d="M2346 8397 c-5 -10 -6 -46 -3 -80 4 -44 3 -57 -4 -44 -8 13 -21 17
-49 15 -31 -1 -37 -5 -28 -15 13 -16 -4 -17 -20 -1 -6 6 -15 8 -19 4 -11 -10
19 -27 39 -22 10 2 22 -2 29 -10 6 -8 22 -14 35 -14 18 0 24 7 29 33 9 48 2
157 -9 134z"/>
<path d="M2240 8345 l0 -45 45 0 45 0 0 45 0 45 -45 0 -45 0 0 -45z"/>
<path d="M3715 8311 c11 -10 75 -64 143 -120 l123 -101 134 0 135 0 0 120 0
120 -75 0 c-66 0 -74 -2 -69 -17 5 -17 5 -17 -6 0 -10 15 -31 17 -208 17 -192
0 -196 0 -177 -19z"/>
<path d="M3660 8026 l0 -285 140 -3 c77 -2 144 -2 149 0 6 2 10 75 10 162 l1
159 -82 69 c-46 38 -113 95 -150 126 l-68 57 0 -285z"/>
<path d="M4290 8201 l0 -111 131 0 c71 0 128 4 125 9 -3 4 -31 28 -63 52 -32
24 -62 49 -68 55 -5 6 -36 32 -67 58 l-58 48 0 -111z"/>
<path d="M3994 7896 l-1 -155 129 -3 128 -3 0 158 0 157 -128 0 -128 0 0 -154z"/>
<path d="M4290 7888 l1 -163 38 -30 c22 -16 89 -72 150 -123 l111 -92 0 285 0
285 -150 0 -150 0 0 -162z"/>
<path d="M3700 7696 c0 -3 30 -30 68 -61 37 -31 87 -73 111 -93 88 -73 81 -77
81 47 l0 109 -130 1 c-71 1 -130 -1 -130 -3z"/>
<path d="M3995 7688 c-2 -7 -3 -62 -2 -123 l2 -110 274 3 c151 1 276 4 278 6
2 2 -60 56 -138 120 l-141 116 -134 0 c-99 0 -136 -3 -139 -12z"/>
<path d="M1645 7358 c2 -23 19 -35 29 -20 3 5 -3 17 -13 26 -17 15 -18 15 -16
-6z"/>
<path d="M2387 5626 c-53 -14 -79 -32 -32 -22 76 16 202 17 268 4 78 -17 77
-7 -2 16 -65 19 -167 20 -234 2z"/>
<path d="M6932 5551 c-20 -12 -10 -46 13 -46 14 0 20 7 20 24 0 27 -13 35 -33
22z"/>
<path d="M7034 5525 c-18 -13 -18 -15 -2 -31 18 -18 48 -13 48 9 0 26 -25 38
-46 22z"/>
<path d="M6833 5474 c-3 -8 1 -22 9 -30 13 -14 17 -14 32 1 13 13 14 20 5 31
-15 19 -38 18 -46 -2z"/>
<path d="M7090 5425 c-7 -8 -10 -22 -6 -30 7 -20 42 -19 50 1 8 22 8 22 -13
33 -14 8 -22 7 -31 -4z"/>
<path d="M6836 5361 c-11 -18 6 -42 28 -39 29 4 29 42 -1 46 -11 2 -24 -1 -27
-7z"/>
<path d="M7040 5324 c-11 -12 -10 -18 3 -32 16 -15 18 -15 34 0 13 14 14 20 3
32 -7 9 -16 16 -20 16 -4 0 -13 -7 -20 -16z"/>
<path d="M6930 5294 c-11 -12 -10 -18 3 -32 16 -15 18 -15 34 0 13 14 14 20 3
32 -7 9 -16 16 -20 16 -4 0 -13 -7 -20 -16z"/>
<path d="M1074 3295 c-8 -20 4 -35 26 -35 23 0 32 13 24 34 -8 20 -43 21 -50
1z"/>
<path d="M1187 3284 c-12 -12 -8 -42 6 -47 21 -8 39 8 35 29 -3 19 -29 30 -41
18z"/>
<path d="M986 3231 c-11 -18 6 -42 28 -39 29 4 29 42 -1 46 -11 2 -24 -1 -27
-7z"/>
<path d="M1240 3174 c-11 -12 -10 -18 3 -32 16 -15 18 -15 33 0 19 18 12 48
-9 48 -8 0 -20 -7 -27 -16z"/>
<path d="M997 3124 c-10 -10 -9 -42 2 -48 18 -11 42 6 39 28 -3 21 -28 33 -41
20z"/>
<path d="M1197 3084 c-4 -4 -7 -16 -7 -26 0 -14 6 -19 23 -16 14 2 22 10 22
23 0 20 -25 32 -38 19z"/>
<path d="M1077 3047 c-8 -21 8 -39 29 -35 27 5 25 42 -2 46 -12 2 -24 -3 -27
-11z"/>
<path d="M5930 2537 c-47 -24 -43 -89 6 -107 20 -8 32 -7 49 4 62 41 10 136
-55 103z"/>
<path d="M5707 2422 c-35 -38 -7 -102 43 -102 20 0 60 41 60 61 0 51 -70 78
-103 41z"/>
<path d="M5917 2322 c-26 -29 -22 -80 7 -93 37 -17 72 -4 85 32 9 27 8 33 -14
55 -29 29 -56 31 -78 6z"/>
<path d="M767 2459 c4 -13 8 -18 11 -10 2 7 -1 18 -6 23 -8 8 -9 4 -5 -13z"/>
<path d="M687 2409 c7 -7 15 -10 18 -7 3 3 -2 9 -12 12 -14 6 -15 5 -6 -5z"/>
<path d="M1166 12804 c-22 -21 -3 -56 27 -52 30 4 35 43 8 57 -15 8 -23 7 -35
-5z"/>
<path d="M5811 12443 c-17 -43 -31 -83 -31 -88 0 -6 14 -24 32 -40 17 -16 42
-54 56 -84 21 -45 24 -64 19 -117 -10 -124 -92 -214 -219 -238 -61 -11 -51 9
11 22 70 15 143 73 172 137 25 54 24 138 -2 195 -19 42 -65 100 -79 100 -4 0
-12 -17 -19 -38 -12 -34 -11 -42 10 -76 54 -93 2 -214 -102 -235 -31 -6 -36
-13 -67 -90 -36 -91 -34 -101 21 -101 16 0 26 -4 22 -10 -4 -6 -23 -7 -46 -4
-38 6 -39 5 -55 -31 -8 -20 -13 -39 -11 -42 13 -12 150 -14 198 -3 223 53 359
234 347 464 -6 116 -51 208 -143 295 -36 33 -70 61 -74 61 -5 0 -23 -35 -40
-77z m79 -63 c0 -5 -4 -10 -10 -10 -5 0 -10 5 -10 10 0 6 5 10 10 10 6 0 10
-4 10 -10z m-30 -520 c0 -5 -4 -10 -10 -10 -5 0 -10 5 -10 10 0 6 5 10 10 10
6 0 10 -4 10 -10z m-100 -54 c0 -3 -4 -8 -10 -11 -5 -3 -10 -1 -10 4 0 6 5 11
10 11 6 0 10 -2 10 -4z"/>
<path d="M5681 12115 c-23 -58 -41 -108 -41 -110 0 -10 32 -4 60 10 31 16 70
80 70 115 0 28 -27 90 -39 90 -5 0 -28 -47 -50 -105z"/>
<path d="M1013 11673 c9 -2 23 -2 30 0 6 3 -1 5 -18 5 -16 0 -22 -2 -12 -5z"/>
<path d="M485 11650 c-3 -5 -1 -10 4 -10 6 0 11 5 11 10 0 6 -2 10 -4 10 -3 0
-8 -4 -11 -10z"/>
<path d="M828 11653 c6 -2 18 -2 25 0 6 3 1 5 -13 5 -14 0 -19 -2 -12 -5z"/>
<path d="M798 11553 c7 -3 16 -2 19 1 4 3 -2 6 -13 5 -11 0 -14 -3 -6 -6z"/>
<path d="M888 11553 c7 -3 16 -2 19 1 4 3 -2 6 -13 5 -11 0 -14 -3 -6 -6z"/>
<path d="M946 11375 c-9 -26 -7 -32 5 -12 6 10 9 21 6 23 -2 3 -7 -2 -11 -11z"/>
<path d="M284 11354 c-19 -15 -19 -15 1 -6 11 5 27 12 35 15 13 5 13 6 -1 6
-8 1 -24 -6 -35 -15z"/>
<path d="M200 11327 c-25 -12 -47 -25 -48 -30 -2 -4 -9 -4 -14 -1 -7 4 -8 2
-4 -4 5 -8 23 -4 59 15 29 15 56 26 60 25 5 -1 6 2 2 8 -3 5 -7 10 -8 9 -1 0
-22 -10 -47 -22z"/>
<path d="M1336 11281 c-4 -5 -2 -12 3 -15 5 -4 12 -2 15 3 4 5 2 12 -3 15 -5
4 -12 2 -15 -3z"/>
<path d="M10 11260 c-8 -5 -12 -11 -9 -14 2 -3 11 -1 19 4 8 5 12 11 9 14 -2
3 -11 1 -19 -4z"/>
<path d="M1283 11228 c1 -7 -3 -12 -9 -11 -6 1 -11 -5 -11 -13 0 -12 4 -11 18
2 10 9 16 21 13 25 -8 13 -14 11 -11 -3z"/>
<path d="M28 11202 l-28 -17 0 -159 0 -159 42 7 c24 3 76 14 116 23 58 13 71
20 67 32 -7 17 -166 292 -169 290 0 0 -13 -8 -28 -17z"/>
<path d="M813 11185 c0 -8 4 -12 9 -9 5 3 6 10 3 15 -9 13 -12 11 -12 -6z"/>
<path d="M1205 11171 c-3 -5 -2 -12 3 -15 5 -3 9 1 9 9 0 17 -3 19 -12 6z"/>
<path d="M738 11134 c-16 -8 -28 -19 -28 -25 0 -6 5 -6 13 1 6 6 21 17 32 25
26 19 17 18 -17 -1z"/>
<path d="M646 11079 c-26 -17 -45 -33 -42 -36 5 -5 33 11 95 54 2 2 2 5 0 7
-2 3 -26 -9 -53 -25z"/>
<path d="M578 10974 c-21 -13 -38 -26 -38 -29 0 -7 79 36 86 46 9 15 -9 9 -48
-17z"/>
<path d="M508 10933 c7 -3 16 -2 19 1 4 3 -2 6 -13 5 -11 0 -14 -3 -6 -6z"/>
<path d="M170 10854 c-47 -12 -98 -23 -113 -23 -16 -1 -35 -8 -44 -16 -14 -14
-13 -16 8 -11 13 3 42 8 64 11 62 10 175 46 175 56 0 5 -1 8 -2 8 -2 -1 -41
-12 -88 -25z"/>
<path d="M196 10797 c-67 -21 -69 -23 -43 -34 21 -10 36 -9 87 9 34 11 59 25
57 32 -6 18 -27 16 -101 -7z"/>
<path d="M5050 10810 c0 -5 5 -10 10 -10 6 0 10 5 10 10 0 6 -4 10 -10 10 -5
0 -10 -4 -10 -10z"/>
<path d="M43 10758 c-33 -7 -43 -14 -43 -29 0 -23 4 -23 85 -3 68 17 80 28 43
38 -27 7 -31 7 -85 -6z"/>
<path d="M275 10736 c-16 -7 -85 -28 -152 -46 -78 -21 -123 -38 -123 -47 0
-15 16 -16 56 -4 16 6 69 21 117 36 55 16 85 30 81 36 -4 7 1 9 14 5 22 -7 74
12 66 25 -7 12 -23 11 -59 -5z"/>
<path d="M220 10644 c-74 -24 -154 -48 -177 -54 l-43 -11 0 -1749 0 -1750 22
9 c22 8 550 237 1502 650 241 104 440 192 443 194 4 5 -1110 1923 -1128 1942
-5 5 -9 0 -9 -13 0 -12 -6 -22 -14 -22 -23 0 -27 16 -12 45 14 26 13 32 -12
75 -288 498 -410 701 -426 706 -15 5 -16 8 -5 15 24 15 -2 8 -141 -37z m31
-154 c36 -20 14 -76 -27 -68 -31 6 -40 34 -20 57 22 24 21 24 47 11z m118 -39
c14 -26 -8 -54 -39 -49 -25 3 -36 27 -26 54 8 20 53 17 65 -5z m-195 -43 c23
-38 -35 -78 -61 -42 -17 23 -16 29 3 49 20 19 43 16 58 -7z m254 -70 c5 -39
-30 -56 -58 -28 -28 28 -11 63 28 58 21 -2 28 -9 30 -30z m-250 -57 c5 -32
-23 -54 -49 -40 -19 10 -26 49 -12 63 4 4 19 6 33 4 18 -2 26 -10 28 -27z
m202 -31 c13 -25 -10 -53 -41 -48 -30 4 -39 46 -14 64 20 15 42 8 55 -16z
m-115 -45 c0 -27 -3 -30 -30 -30 -21 0 -31 5 -33 18 -6 33 6 49 35 45 24 -3
28 -8 28 -33z m550 -384 c7 -12 -12 -24 -25 -16 -11 7 -4 25 10 25 5 0 11 -4
15 -9z m-23 -86 c0 -5 -5 -11 -11 -13 -6 -2 -11 4 -11 13 0 9 5 15 11 13 6 -2
11 -8 11 -13z m-10 -50 c0 -5 -5 -11 -11 -13 -6 -2 -11 4 -11 13 0 9 5 15 11
13 6 -2 11 -8 11 -13z m-4 -58 c2 -12 -3 -17 -17 -17 -12 0 -21 6 -21 13 0 31
32 34 38 4z m-8 -68 c0 -19 -5 -29 -14 -29 -22 0 -27 15 -16 45 12 33 30 24
30 -16z m-12 -60 c-2 -6 -8 -10 -13 -10 -5 0 -11 4 -13 10 -2 6 4 11 13 11 9
0 15 -5 13 -11z m0 -80 c-2 -6 -8 -10 -13 -10 -5 0 -11 4 -13 10 -2 6 4 11 13
11 9 0 15 -5 13 -11z m0 -51 c-6 -18 -28 -21 -28 -4 0 9 7 16 16 16 9 0 14 -5
12 -12z m0 -61 c2 -10 -3 -17 -12 -17 -18 0 -29 16 -21 31 9 14 29 6 33 -14z
m5 -54 c6 -32 1 -43 -19 -43 -9 0 -14 11 -14 35 0 43 25 48 33 8z m-2 -76
c-13 -13 -26 -3 -16 12 3 6 11 8 17 5 6 -4 6 -10 -1 -17z m9 -72 c0 -8 -4 -15
-10 -15 -5 0 -10 7 -10 15 0 8 5 15 10 15 6 0 10 -7 10 -15z m10 -55 c0 -5 -7
-10 -15 -10 -8 0 -15 5 -15 10 0 6 7 10 15 10 8 0 15 -4 15 -10z m18 -57 c-2
-10 -10 -18 -18 -18 -8 0 -16 8 -18 18 -2 12 3 17 18 17 15 0 20 -5 18 -17z
m9 -60 c10 -21 10 -28 1 -35 -17 -10 -31 5 -34 37 -4 33 18 32 33 -2z m13 -68
c0 -8 -4 -15 -9 -15 -13 0 -22 16 -14 24 11 11 23 6 23 -9z m30 -75 c0 -5 -7
-10 -15 -10 -8 0 -15 5 -15 10 0 6 7 10 15 10 8 0 15 -4 15 -10z m10 -51 c0
-5 -7 -9 -15 -9 -15 0 -20 12 -9 23 8 8 24 -1 24 -14z m27 -45 c7 -18 -17 -38
-31 -24 -11 11 -1 40 14 40 6 0 13 -7 17 -16z m18 -60 c12 -19 14 -29 6 -37
-14 -14 -27 -1 -36 36 -9 35 7 35 30 1z m25 -70 c0 -17 -22 -14 -28 4 -2 7 3
12 12 12 9 0 16 -7 16 -16z m32 -69 c0 -5 -5 -11 -11 -13 -6 -2 -11 4 -11 13
0 9 5 15 11 13 6 -2 11 -8 11 -13z m28 -45 c0 -5 -7 -10 -15 -10 -8 0 -15 5
-15 10 0 6 7 10 15 10 8 0 15 -4 15 -10z m35 -50 c0 -8 -8 -16 -17 -18 -13 -2
-18 3 -18 18 0 15 5 20 18 18 9 -2 17 -10 17 -18z m26 -41 c20 -20 20 -49 -1
-49 -10 0 -30 40 -30 61 0 14 8 11 31 -12z m39 -70 c0 -5 -7 -9 -15 -9 -15 0
-20 12 -9 23 8 8 24 -1 24 -14z m-484 -60 c46 -39 84 -74 84 -78 0 -3 -33 -36
-74 -73 l-73 -67 -59 15 c-33 9 -63 21 -69 28 -6 8 -8 52 -5 110 l5 97 40 19
c22 10 46 19 54 19 7 1 51 -31 97 -70z m532 0 c-2 -6 -8 -10 -13 -10 -5 0 -11
4 -13 10 -2 6 4 11 13 11 9 0 15 -5 13 -11z m32 -45 c0 -17 -22 -14 -28 4 -2
7 3 12 12 12 9 0 16 -7 16 -16z m40 -44 c0 -11 5 -20 10 -20 18 0 53 -38 45
-49 -9 -16 -35 -13 -35 4 0 8 -4 15 -10 15 -5 0 -10 7 -10 15 0 8 -6 15 -14
15 -18 0 -29 16 -21 30 11 18 35 11 35 -10z m80 -95 c0 -8 -4 -15 -9 -15 -13
0 -22 16 -14 24 11 11 23 6 23 -9z m60 -56 c0 -5 -7 -9 -15 -9 -15 0 -20 12
-9 23 8 8 24 -1 24 -14z m40 -35 c0 -9 -5 -14 -12 -12 -18 6 -21 28 -4 28 9 0
16 -7 16 -16z m48 -37 c2 -12 -3 -17 -17 -17 -12 0 -21 6 -21 13 0 31 32 34
38 4z m62 -49 c0 -10 -6 -18 -13 -18 -16 0 -49 38 -42 50 8 14 55 -13 55 -32z
m40 -29 c0 -5 -7 -9 -15 -9 -15 0 -20 12 -9 23 8 8 24 -1 24 -14z m60 -44 c0
-8 -4 -15 -9 -15 -13 0 -22 16 -14 24 11 11 23 6 23 -9z"/>
<path d="M207 10467 c-8 -21 8 -39 29 -35 27 5 25 42 -2 46 -12 2 -24 -3 -27
-11z"/>
<path d="M314 10445 c-8 -19 3 -35 26 -35 19 0 30 17 23 38 -6 17 -42 15 -49
-3z"/>
<path d="M121 10407 c-15 -19 10 -53 33 -44 21 8 21 43 0 51 -21 8 -20 8 -33
-7z"/>
<path d="M377 10354 c-4 -4 -7 -16 -7 -26 0 -13 7 -18 26 -18 21 0 25 4 22 22
-3 23 -27 35 -41 22z"/>
<path d="M124 10286 c-8 -21 3 -36 27 -36 15 0 20 6 17 22 -4 27 -35 37 -44
14z"/>
<path d="M322 10238 c2 -15 10 -23 23 -23 13 0 21 8 23 23 3 18 -1 22 -23 22
-22 0 -26 -4 -23 -22z"/>
<path d="M212 10208 c2 -15 10 -23 23 -23 30 0 27 39 -3 43 -20 3 -23 0 -20
-20z"/>
<path d="M462 8272 l-33 -18 24 -22 c30 -29 47 -28 47 2 0 13 3 31 6 40 8 20
-3 20 -44 -2z"/>
<path d="M516 8258 c-13 -56 -11 -62 19 -77 17 -8 55 -17 85 -19 l55 -5 -60
52 c-83 72 -93 77 -99 49z"/>
<path d="M420 8155 c0 -77 2 -85 16 -77 18 10 56 100 48 113 -2 4 -18 18 -34
29 l-30 21 0 -86z"/>
<path d="M491 8158 c-23 -62 -23 -65 6 -76 15 -5 35 -13 44 -17 13 -5 20 4 32
39 l15 45 -39 15 c-50 20 -48 20 -58 -6z"/>
<path d="M584 8105 c-9 -25 -15 -47 -12 -50 2 -2 26 18 53 45 l49 50 -36 0
c-34 0 -38 -3 -54 -45z"/>
<path d="M442 8067 c-10 -12 -5 -16 32 -26 25 -6 52 -11 60 -11 25 0 19 20 -9
30 -52 20 -71 21 -83 7z"/>
<path d="M5450 10670 c0 -5 5 -10 10 -10 6 0 10 5 10 10 0 6 -4 10 -10 10 -5
0 -10 -4 -10 -10z"/>
<path d="M6580 10309 c0 -15 182 -359 191 -359 24 0 81 34 88 53 16 46 65 246
61 251 -3 2 -70 16 -150 30 -80 14 -155 29 -167 31 -13 3 -23 1 -23 -6z"/>
<path d="M6426 10174 l-116 -138 168 -67 169 -68 46 17 c26 9 47 20 47 25 0 6
-187 357 -195 365 -2 2 -55 -59 -119 -134z"/>
<path d="M6936 10199 c-3 -8 -14 -50 -26 -94 -12 -44 -24 -88 -26 -97 -5 -18
3 -17 98 21 l28 10 -30 82 c-33 90 -37 98 -44 78z"/>
<path d="M6938 9983 l-67 -25 -16 -55 c-9 -30 -14 -58 -11 -61 7 -6 216 48
216 57 0 16 -39 105 -46 108 -5 1 -39 -10 -76 -24z"/>
<path d="M6340 9923 c16 -43 32 -87 37 -99 8 -21 10 -20 116 19 59 22 104 44
100 48 -10 9 -259 109 -272 109 -5 0 3 -35 19 -77z"/>
<path d="M6798 9929 c-17 -9 -17 -12 -2 -41 18 -34 29 -29 39 20 7 34 -4 41
-37 21z"/>
<path d="M6712 9896 c-23 -12 -23 -13 27 -34 55 -22 64 -15 35 26 -17 25 -29
27 -62 8z"/>
<path d="M6565 9841 c-38 -15 -91 -35 -117 -45 -27 -10 -48 -23 -48 -29 0 -6
7 -30 16 -54 l16 -42 37 15 c20 9 98 41 174 71 75 31 137 59 137 63 0 7 -118
51 -135 50 -5 -1 -41 -14 -80 -29z"/>
<path d="M6935 9840 l-100 -27 -3 -93 c-3 -88 -2 -92 15 -79 10 8 24 22 31 32
7 9 18 14 24 11 6 -4 8 -2 5 3 -4 6 25 47 64 92 39 45 70 83 68 85 -2 2 -49
-9 -104 -24z"/>
<path d="M6725 9766 c-38 -18 -109 -48 -157 -67 -49 -19 -88 -36 -88 -39 0 -7
313 -60 319 -54 9 9 14 194 5 193 -5 0 -40 -15 -79 -33z"/>
<path d="M6530 5064 c-25 -14 -47 -28 -49 -30 -2 -2 21 -4 52 -4 57 0 57 0 57
30 0 36 -3 37 -60 4z"/>
<path d="M6634 5064 c3 -9 6 -20 6 -25 0 -5 19 -9 43 -9 l42 0 -40 25 c-47 29
-59 31 -51 9z"/>
<path d="M6182 4968 c10 -28 35 -32 69 -10 l34 22 -53 0 c-37 0 -52 -4 -50
-12z"/>
<path d="M6315 4944 c-33 -20 -64 -39 -69 -44 -4 -4 18 -45 51 -92 33 -45 95
-132 138 -193 43 -60 80 -112 82 -115 2 -2 35 28 74 66 l70 71 -28 169 -29
169 -114 2 c-115 2 -115 1 -175 -33z"/>
<path d="M6651 4968 c1 -37 46 -268 52 -274 9 -9 228 206 221 217 -2 4 -29 21
-59 38 -49 28 -64 31 -135 31 -58 0 -80 -3 -79 -12z"/>
<path d="M6920 4970 c41 -29 47 -29 65 -10 18 20 17 20 -31 20 -36 0 -45 -3
-34 -10z"/>
<path d="M7030 4945 c-13 -14 -22 -26 -19 -28 17 -13 109 -66 109 -62 0 4 -58
106 -64 112 -2 2 -13 -8 -26 -22z"/>
<path d="M6099 4910 c-15 -28 -25 -50 -22 -50 2 0 24 12 49 26 43 26 44 26 26
50 -9 13 -19 23 -22 24 -3 0 -17 -23 -31 -50z"/>
<path d="M6837 4752 l-128 -129 16 -94 c9 -52 19 -97 23 -101 4 -3 78 -25 166
-47 l158 -41 104 107 c57 60 103 115 103 123 0 8 -25 58 -57 110 -56 92 -59
95 -147 147 -49 29 -95 53 -100 53 -6 0 -68 -58 -138 -128z"/>
<path d="M6103 4822 c-79 -45 -84 -50 -129 -130 -26 -46 -43 -87 -38 -91 17
-16 249 -168 280 -184 30 -15 36 -15 145 19 62 19 114 36 115 37 5 5 -277 397
-284 397 -4 0 -44 -22 -89 -48z"/>
<path d="M5915 4716 c-11 -7 -33 -21 -49 -31 l-29 -18 24 -18 24 -18 28 46
c31 50 32 57 2 39z"/>
<path d="M7281 4668 c17 -29 33 -55 35 -57 5 -5 44 30 44 40 0 7 -94 69 -105
69 -2 0 9 -24 26 -52z"/>
<path d="M5810 4565 c0 -30 2 -55 5 -55 2 0 14 19 26 42 20 40 20 42 3 55 -29
21 -34 16 -34 -42z"/>
<path d="M6615 4530 c-27 -27 -46 -52 -42 -56 3 -4 31 -12 62 -19 l55 -13 -6
51 c-12 93 -14 93 -69 37z"/>
<path d="M5856 4488 c-42 -74 -46 -86 -46 -149 0 -38 3 -69 6 -69 10 0 337
102 351 109 7 4 -45 44 -127 98 l-139 92 -45 -81z"/>
<path d="M7351 4554 c0 -11 3 -14 6 -6 3 7 2 16 -1 19 -3 4 -6 -2 -5 -13z"/>
<path d="M7218 4429 c-45 -50 -84 -94 -86 -98 -2 -6 193 -61 217 -61 7 0 11
30 11 86 0 70 -4 94 -22 125 -12 22 -25 39 -29 39 -4 0 -45 -41 -91 -91z"/>
<path d="M6445 4415 c-5 -2 -43 -14 -83 -26 l-73 -21 66 -45 c37 -25 69 -42
72 -39 3 2 16 34 29 70 23 64 21 73 -11 61z"/>
<path d="M6570 4415 c0 -6 170 -348 176 -354 12 -13 9 20 -15 164 l-27 160
-49 17 c-51 17 -85 22 -85 13z"/>
<path d="M6512 4380 c-30 -80 -45 -130 -41 -133 25 -22 189 -126 188 -120 0 5
-31 69 -69 143 -62 123 -69 133 -78 110z"/>
<path d="M6754 4353 c2 -10 15 -81 27 -157 l23 -140 113 119 c62 66 113 122
113 125 0 5 -247 70 -268 70 -8 0 -11 -7 -8 -17z"/>
<path d="M6150 4325 c-41 -13 -135 -42 -207 -65 l-133 -41 0 -116 0 -115 51
-89 c29 -49 55 -92 60 -95 12 -7 352 85 365 99 11 12 127 328 122 332 -8 7
-179 115 -181 115 -1 -1 -36 -12 -77 -25z"/>
<path d="M5742 4290 c-32 -50 -27 -65 12 -37 12 9 17 23 14 42 l-3 30 -23 -35z"/>
<path d="M6995 4193 c-49 -53 -107 -115 -127 -138 l-37 -42 106 -49 c72 -33
108 -44 111 -36 2 7 8 12 14 12 6 0 7 -7 4 -16 -4 -11 19 -27 101 -65 58 -27
108 -47 110 -45 3 3 22 35 44 71 l39 67 0 134 c0 74 -1 134 -3 134 -2 0 -64
16 -138 35 -74 19 -134 35 -134 35 0 0 -40 -44 -90 -97z"/>
<path d="M5718 4193 c-23 -6 -23 -5 11 -65 l29 -50 4 61 c3 64 1 66 -44 54z"/>
<path d="M6445 4191 c-3 -6 -19 -48 -35 -93 -15 -46 -38 -107 -49 -135 -11
-29 -20 -53 -18 -53 1 0 18 5 37 11 19 5 43 12 53 14 9 2 59 15 110 29 50 14
111 30 134 36 26 7 40 15 37 23 -4 10 -230 165 -254 175 -5 2 -11 -2 -15 -7z"/>
<path d="M4 3980 c3 -47 7 -95 7 -108 1 -17 4 -20 14 -12 17 14 26 1 61 -92
16 -43 34 -78 41 -78 9 0 8 11 -4 43 -8 23 -17 51 -18 62 -4 22 -94 257 -102
265 -3 3 -2 -33 1 -80z"/>
<path d="M6525 3914 c-109 -30 -201 -56 -202 -58 -8 -8 -121 -332 -117 -337 2
-3 44 -29 93 -58 l89 -51 106 1 c58 0 108 4 110 8 7 11 146 524 146 539 0 17
-3 17 -225 -44z m42 -361 c-3 -10 -5 -4 -5 12 0 17 2 24 5 18 2 -7 2 -21 0
-30z"/>
<path d="M6802 3958 c6 -25 208 -418 214 -418 4 0 39 18 80 40 65 37 76 47
111 108 21 37 40 70 41 75 2 4 -31 24 -75 43 -43 20 -140 65 -216 100 -145 67
-161 72 -155 52z"/>
<path d="M5810 3831 l0 -63 27 7 c16 4 30 8 32 10 2 2 -11 28 -28 57 l-31 53
0 -64z"/>
<path d="M6765 3828 c-55 -192 -111 -409 -107 -413 3 -3 35 -5 72 -5 62 0 74
4 149 46 45 25 84 50 86 55 5 8 -171 369 -180 369 -2 0 -11 -24 -20 -52z"/>
<path d="M7337 3825 c-16 -33 -16 -35 3 -45 19 -10 20 -7 20 35 0 25 -1 45 -3
45 -2 0 -11 -16 -20 -35z"/>
<path d="M6102 3800 c-79 -21 -146 -41 -149 -43 -3 -3 10 -33 28 -67 29 -53
44 -67 102 -102 38 -22 73 -36 77 -32 5 5 27 59 48 119 22 61 45 122 51 138
13 34 20 35 -157 -13z"/>
<path d="M7270 3709 l-21 -40 23 12 c13 7 34 19 47 27 22 15 22 16 5 29 -27
19 -32 17 -54 -28z"/>
<path d="M5856 3732 c-3 -5 13 -19 34 -31 43 -24 49 -19 24 17 -15 22 -48 30
-58 14z"/>
<path d="M6081 3519 c29 -57 42 -71 50 -57 21 32 11 46 -54 76 -5 3 -3 -6 4
-19z"/>
<path d="M7078 3519 c-40 -21 -46 -35 -25 -62 11 -15 15 -12 40 33 16 27 27
50 25 50 -2 -1 -20 -10 -40 -21z"/>
<path d="M6172 3445 c-7 -14 -12 -28 -12 -30 0 -3 27 -5 61 -5 67 0 69 9 9 40
-48 25 -44 25 -58 -5z"/>
<path d="M6940 3441 l-45 -26 59 -3 c32 -2 60 -1 63 1 5 6 -19 57 -26 56 -3
-1 -26 -13 -51 -28z"/>
<path d="M6476 3362 c28 -26 104 -62 104 -50 0 7 3 23 6 36 6 21 4 22 -57 22
-35 0 -59 -4 -53 -8z"/>
<path d="M6642 3358 c-12 -12 -17 -38 -8 -38 8 0 76 42 76 46 0 10 -57 3 -68
-8z"/>
<path d="M97 3251 c10 -18 24 -35 31 -38 6 -3 12 -13 12 -23 0 -22 16 -35 24
-21 4 5 1 11 -5 13 -6 2 -12 17 -11 32 0 21 -3 25 -10 15 -7 -11 -11 -11 -15
-2 -2 7 -14 23 -25 35 l-19 23 18 -34z"/>
<path d="M2653 3166 c-188 -6 -345 -14 -348 -18 -5 -5 162 -488 302 -872 l36
-99 333 339 c183 186 332 342 331 347 -1 4 -49 77 -107 162 l-105 154 -50 -1
c-27 -1 -204 -6 -392 -12z m39 -791 c0 -5 -5 -11 -11 -13 -6 -2 -11 4 -11 13
0 9 5 15 11 13 6 -2 11 -8 11 -13z"/>
<path d="M2073 2929 c-414 -473 -629 -718 -793 -902 -233 -264 -242 -275 -233
-280 11 -7 406 -159 418 -161 6 -1 19 -7 30 -13 43 -22 366 -144 374 -141 9 3
660 629 709 680 l23 25 -40 109 c-22 60 -99 275 -171 479 -72 203 -135 375
-139 383 -6 10 -56 -40 -178 -179z m37 -457 c0 -13 -12 -22 -22 -16 -10 6 -1
24 13 24 5 0 9 -4 9 -8z m-148 -205 c62 -30 105 -74 140 -140 32 -61 33 -193
0 -258 -52 -106 -158 -173 -273 -173 -54 0 -78 6 -131 32 -117 57 -171 145
-170 276 1 114 68 216 176 267 80 38 175 36 258 -4z"/>
<path d="M4179 3052 c-41 -37 -145 -129 -230 -205 -85 -76 -252 -225 -371
-330 -119 -106 -217 -194 -217 -197 0 -3 122 -100 272 -217 150 -117 396 -309
547 -427 165 -130 276 -211 278 -202 3 12 -13 146 -93 801 -13 110 -41 342
-61 515 -20 173 -40 318 -43 322 -3 3 -40 -24 -82 -60z m-514 -692 c-3 -5 -10
-10 -16 -10 -5 0 -9 5 -9 10 0 6 7 10 16 10 8 0 12 -4 9 -10z m315 -325 c0 -8
-4 -15 -10 -15 -5 0 -10 7 -10 15 0 8 5 15 10 15 6 0 10 -7 10 -15z"/>
<path d="M3758 2972 l-396 -137 -264 -270 c-145 -148 -287 -296 -317 -327
l-53 -57 49 14 c26 7 155 43 287 80 l239 67 226 201 c279 249 613 547 626 558
5 5 7 9 5 8 -3 0 -183 -62 -402 -137z m-248 -307 c0 -8 -4 -15 -10 -15 -5 0
-10 7 -10 15 0 8 5 15 10 15 6 0 10 -7 10 -15z m-250 -135 c0 -5 -7 -10 -16
-10 -8 0 -12 5 -9 10 3 6 10 10 16 10 5 0 9 -4 9 -10z"/>
<path d="M4920 2960 c6 -11 13 -20 16 -20 2 0 0 9 -6 20 -6 11 -13 20 -16 20
-2 0 0 -9 6 -20z"/>
<path d="M4999 2960 c-9 -6 -6 -8 14 -6 32 3 43 11 18 13 -9 1 -24 -2 -32 -7z"/>
<path d="M4876 2927 c3 -10 9 -15 12 -12 3 3 0 11 -7 18 -10 9 -11 8 -5 -6z"/>
<path d="M4982 2925 c-7 -8 -9 -15 -4 -15 5 0 15 7 22 15 16 19 -1 19 -18 0z"/>
<path d="M2985 2197 c-176 -49 -321 -90 -323 -92 -1 -1 16 -195 38 -430 22
-236 40 -439 40 -452 0 -18 6 -23 26 -23 30 0 1647 210 1652 215 2 1 -100 83
-225 182 -431 338 -868 679 -878 685 -5 3 -154 -35 -330 -85z m-175 -397 c0
-5 -4 -10 -10 -10 -5 0 -10 5 -10 10 0 6 5 10 10 10 6 0 10 -4 10 -10z m210
-180 c0 -5 -4 -10 -10 -10 -5 0 -10 5 -10 10 0 6 5 10 10 10 6 0 10 -4 10 -10z
m138 -141 c-2 -6 -8 -10 -13 -10 -5 0 -11 4 -13 10 -2 6 4 11 13 11 9 0 15 -5
13 -11z m-311 -45 c-9 -9 -28 6 -21 18 4 6 10 6 17 -1 6 -6 8 -13 4 -17z m533
5 c0 -5 -7 -9 -15 -9 -15 0 -20 12 -9 23 8 8 24 -1 24 -14z m-560 -79 c0 -5
-4 -10 -10 -10 -5 0 -10 5 -10 10 0 6 5 10 10 10 6 0 10 -4 10 -10z m221 -53
c-1 -12 -15 -9 -19 4 -3 6 1 10 8 8 6 -3 11 -8 11 -12z m-231 -42 c0 -8 -4
-15 -10 -15 -5 0 -10 7 -10 15 0 8 5 15 10 15 6 0 10 -7 10 -15z"/>
<path d="M2410 1874 c-108 -104 -264 -255 -347 -336 l-152 -146 143 -215 c79
-118 148 -222 153 -231 8 -15 16 -13 72 19 35 19 139 74 233 122 93 47 172 92
174 98 6 14 -62 776 -74 839 l-7 39 -195 -189z m180 -374 c0 -5 -7 -10 -15
-10 -8 0 -15 5 -15 10 0 6 7 10 15 10 8 0 15 -4 15 -10z m-70 -335 c0 -8 -4
-15 -10 -15 -5 0 -10 7 -10 15 0 8 5 15 10 15 6 0 10 -7 10 -15z m-202 -76
c-2 -6 -8 -10 -13 -10 -5 0 -11 4 -13 10 -2 6 4 11 13 11 9 0 15 -5 13 -11z"/>
<path d="M1050 1687 c0 -3 49 -111 109 -239 59 -128 123 -267 141 -308 18 -41
55 -122 82 -180 27 -58 66 -140 85 -182 20 -43 40 -78 45 -78 22 0 658 212
658 219 0 5 -12 24 -27 44 -16 19 -82 115 -148 212 -66 97 -124 183 -130 190
-7 9 -454 189 -800 321 -8 3 -15 4 -15 1z"/>
<path d="M4310 1344 c-94 -13 -1062 -139 -1295 -169 -66 -8 -136 -18 -155 -21
-31 -5 46 -40 700 -320 404 -173 737 -314 740 -314 3 0 39 177 79 393 40 215
75 404 78 420 6 32 3 32 -147 11z m-760 -219 c0 -8 -4 -15 -10 -15 -5 0 -10 7
-10 15 0 8 5 15 10 15 6 0 10 -7 10 -15z m-219 -158 c-13 -13 -26 -3 -16 12 3
6 11 8 17 5 6 -4 6 -10 -1 -17z m399 -92 c0 -8 -4 -15 -10 -15 -5 0 -10 7 -10
15 0 8 5 15 10 15 6 0 10 -7 10 -15z"/>
<path d="M2477 1012 l-228 -115 41 -42 c22 -23 37 -45 33 -50 -5 -4 -3 -5 3
-2 7 4 159 -140 354 -333 331 -328 359 -352 360 -302 0 6 5 12 11 12 7 0 8 -7
4 -17 -18 -43 -16 -52 20 -88 19 -21 38 -35 40 -33 3 3 14 29 24 59 39 111 68
185 80 207 7 13 14 33 17 45 6 35 58 147 67 147 5 0 6 -8 2 -17 -13 -32 -66
-177 -87 -238 -11 -33 -20 -78 -20 -100 -1 -22 -11 -64 -24 -92 l-23 -53 29 0
c27 0 33 6 59 65 17 36 28 72 25 80 -3 8 6 39 20 70 14 31 23 62 20 70 -8 20
77 215 93 215 17 0 17 0 -7 -54 -10 -25 -15 -48 -10 -51 5 -3 1 -25 -10 -49
-12 -29 -15 -47 -8 -54 6 -6 2 -24 -12 -52 -15 -30 -18 -45 -11 -50 8 -5 6
-20 -8 -53 -11 -26 -17 -47 -12 -47 15 0 73 152 61 160 -8 5 5 44 41 126 58
132 62 139 78 130 7 -5 6 -19 -5 -44 -9 -20 -18 -43 -21 -49 -3 -7 2 -13 11
-13 19 0 20 -13 5 -41 -6 -11 -12 -37 -14 -57 -2 -20 -9 -64 -15 -97 -17 -100
-18 -99 44 -68 30 15 53 31 50 35 -6 10 20 46 97 133 29 33 49 51 44 40 -4
-11 -9 -36 -9 -55 -1 -19 -8 -45 -14 -58 -8 -13 -9 -22 -3 -22 6 0 20 18 31
41 13 25 26 39 35 35 12 -4 37 25 75 89 10 18 11 18 5 -5 -9 -34 -11 -101 -4
-98 96 39 438 203 432 208 -15 14 -1511 650 -1525 649 -7 -1 -116 -54 -241
-117z m163 -72 c0 -5 -4 -10 -10 -10 -5 0 -10 5 -10 10 0 6 5 10 10 10 6 0 10
-4 10 -10z m-190 -38 c0 -13 -12 -22 -22 -16 -10 6 -1 24 13 24 5 0 9 -4 9 -8z
m430 -92 c0 -5 -4 -10 -10 -10 -5 0 -10 5 -10 10 0 6 5 10 10 10 6 0 10 -4 10
-10z m-40 -190 c0 -5 -4 -10 -10 -10 -5 0 -10 5 -10 10 0 6 5 10 10 10 6 0 10
-4 10 -10z m750 -117 c-1 -5 -12 -21 -26 -38 -15 -16 -24 -25 -20 -19 3 6 10
23 15 38 9 23 32 37 31 19z m-389 -40 c-12 -20 -14 -14 -5 12 4 9 9 14 11 11
3 -2 0 -13 -6 -23z m530 -90 c-12 -20 -14 -14 -5 12 4 9 9 14 11 11 3 -2 0
-13 -6 -23z m-581 -18 c-6 -15 -13 -25 -16 -23 -2 3 1 17 7 32 16 34 23 27 9
-9z m-52 -107 c-6 -18 -13 -27 -15 -21 -4 11 13 53 22 53 2 0 -1 -15 -7 -32z"/>
<path d="M2160 860 c-8 -5 -152 -53 -320 -106 -168 -54 -308 -100 -312 -103
-4 -3 2 -42 13 -86 10 -44 39 -172 64 -285 26 -113 51 -222 56 -242 l10 -38
228 0 c220 0 229 1 234 20 7 26 37 26 44 0 5 -20 14 -20 395 -20 l389 0 15 36
c8 20 14 40 12 44 -8 23 -783 790 -797 789 -9 0 -23 -4 -31 -9z m-145 -485 c0
-30 -39 -27 -43 3 -3 20 0 23 20 20 15 -2 23 -10 23 -23z m173 -39 c4 -21 -14
-37 -35 -29 -14 5 -18 35 -6 47 12 12 38 1 41 -18z m-320 -48 c7 -7 12 -17 12
-24 0 -19 -32 -26 -48 -10 -13 12 -13 18 -2 30 15 19 22 20 38 4z m392 -103
c10 -12 10 -18 0 -30 -16 -19 -39 -19 -46 0 -6 15 11 45 26 45 4 0 13 -7 20
-15z m-392 -89 c5 -24 -10 -38 -31 -30 -17 6 -23 35 -10 48 12 12 38 1 41 -18z"/>
<path d="M5681 551 c-13 -24 9 -57 33 -48 23 9 31 34 16 52 -17 20 -37 19 -49
-4z"/>
<path d="M3874 245 c-23 -11 -37 -28 -58 -79 -16 -36 -32 -64 -36 -61 -5 3
-11 1 -14 -4 -3 -5 3 -11 14 -14 19 -5 19 -7 5 -41 -19 -45 -19 -46 3 -46 13
0 32 33 74 130 31 72 53 130 50 129 -4 0 -21 -7 -38 -14z"/>
<path d="M3780 200 c-13 -8 -13 -11 1 -25 14 -14 16 -13 27 10 13 27 1 34 -28
15z"/>
<path d="M2992 35 c-16 -36 -17 -35 35 -35 l47 0 -29 30 c-35 36 -39 37 -53 5z"/>
<path d="M3463 53 c-7 -2 -13 -16 -13 -29 0 -17 6 -24 19 -24 25 0 34 14 26
40 -6 20 -11 22 -32 13z"/>
</g>
</svg>
