<?xml version="1.0" encoding="UTF-8" standalone="no"?>
<svg id="svg2" xmlns:rdf="http://www.w3.org/1999/02/22-rdf-syntax-ns#" xmlns="http://www.w3.org/2000/svg" height="103.15mm" width="194.19mm" version="1.1" xmlns:cc="http://creativecommons.org/ns#" xmlns:dc="http://purl.org/dc/elements/1.1/" viewBox="0 0 688.06403 365.48394">
<g id="layer1" transform="translate(2885.9 551.46)">
<g id="g4142">
<path id="path250" d="m-2391.3-529.87 128.9-0.10749 0.215 64.382 21.29 0.16125-0.027 64.355-150.3 0.0263-0.081-128.82z" fill="#0ff"/>
<path id="path252" d="m-2262.4-529.98 21.505 0.0538v64.489l-21.29-0.16125-0.215-64.382zm-623.47-21.478 623.47 0.0263v21.452l-128.9 0.1075 0.081 128.82 150.3-0.0263 0.027-64.355 21.505 0.0275 0.1075 42.849 21.398 0.215v150.35l-64.409-0.0275-0.215-21.236-21.156-0.37638-0.3764-21.236-85.645 0.0537-0.3763 21.183-21.183 0.37638-0.1613 21.263h-300.99l-0.215-21.263-21.156-0.37638-0.3764-21.236-85.645 0.0537-0.3763 21.183-21.183 0.37638-0.1613 21.263-64.435-0.0538 0.081-279.41z" fill="#4e9bf1"/>
<path id="path342" d="m-2348.3-271.89 42.93-0.0263 0.027 42.93-42.93 0.0275-0.027-42.93zm-430.11 0 42.93-0.0263 0.027 42.93-42.93 0.0275-0.027-42.93zm408.76-42.93 85.645-0.0537 0.3763 21.236 21.156 0.37637 0.2151 21.236-0.1613 64.516-21.317 0.215-0.215 21.317-85.806-0.0275-0.2151-21.344-21.317-0.21501-0.081-64.436 0.1613-21.263 21.183-0.37637 0.3763-21.183m21.398 21.425-0.054 21.505h-21.452l-0.027 42.876 21.505 0.0538v21.452l42.876 0.0263 0.054-21.505h21.452l0.027-42.876-21.505-0.0537v-21.452l-42.876-0.0275zm-451.5-21.424 85.645-0.0537 0.3763 21.236 21.156 0.37637 0.2151 21.263-0.1613 64.489-21.317 0.215-0.2151 21.317-85.806-0.0275-0.2151-21.344-21.317-0.215-0.081-64.436 0.1613-21.263 21.183-0.37638 0.3763-21.183m21.398 21.425-0.054 21.505h-21.452l-0.027 42.876 21.505 0.0538v21.452l42.876 0.0263 0.054-21.505h21.452l0.027-42.876-21.505-0.0537v-21.452l-42.876-0.0275z"/>
<path id="path420" d="m-2348.3-228.96 42.93-0.0275-0.054 21.505-42.876-0.0263v-21.452zm-430.11 0 42.93-0.0275-0.054 21.505-42.876-0.0263v-21.452zm473.01-42.957 21.505 0.0538-0.027 42.876h-21.452l-0.027-42.93zm-64.382 0.0269h21.452l0.027 42.93-21.505-0.0538 0.027-42.876zm-365.73-0.0269 21.505 0.0538-0.027 42.876h-21.452l-0.027-42.93zm-64.382 0.0269h21.452l0.027 42.93-21.505-0.0538 0.027-42.876zm451.61-21.505 42.876 0.0275v21.452l-42.93 0.0263 0.054-21.505zm-430.11 0 42.876 0.0275v21.452l-42.93 0.0263 0.054-21.505z" fill="#c0c0c0"/>
</g>
</g>
</svg>
